<svg width="215" height="263" viewBox="0 0 215 263" fill="none" xmlns="http://www.w3.org/2000/svg">
<path d="M52.0181 235.46L46.1951 255.484H41.2681L37.3563 241.226L33.2653 255.484L28.3681 255.512L22.7542 235.46H27.2333L30.9063 251.008L35.1465 235.46H39.8049L43.8063 250.922L47.509 235.46H52.0181Z" fill="#DEFA8E"/>
<path d="M59.645 247.48C59.645 245.873 59.9735 244.448 60.6304 243.205C61.3073 241.962 62.2131 241.006 63.3478 240.336C64.5024 239.667 65.7864 239.332 67.1999 239.332C68.4341 239.332 69.5091 239.571 70.4249 240.05C71.3605 240.528 72.107 241.13 72.6644 241.857V239.591H76.8749V255.484H72.6644V253.16C72.1269 253.906 71.3804 254.527 70.4249 255.025C69.4892 255.503 68.4043 255.742 67.17 255.742C65.7765 255.742 64.5024 255.398 63.3478 254.709C62.2131 254.021 61.3073 253.055 60.6304 251.812C59.9735 250.549 59.645 249.105 59.645 247.48ZM72.6644 247.537C72.6644 246.562 72.4654 245.73 72.0672 245.041C71.6691 244.334 71.1316 243.798 70.4547 243.435C69.7779 243.052 69.0513 242.861 68.2749 242.861C67.4985 242.861 66.7818 243.043 66.1249 243.406C65.4679 243.769 64.9304 244.305 64.5124 245.013C64.1142 245.701 63.9151 246.524 63.9151 247.48C63.9151 248.436 64.1142 249.278 64.5124 250.004C64.9304 250.712 65.4679 251.257 66.1249 251.64C66.8017 252.022 67.5184 252.213 68.2749 252.213C69.0513 252.213 69.7779 252.032 70.4547 251.668C71.1316 251.286 71.6691 250.75 72.0672 250.062C72.4654 249.354 72.6644 248.513 72.6644 247.537Z" fill="#DEFA8E"/>
<path d="M102.757 239.591L92.5142 263H88.0648L91.6482 255.082L85.019 239.591H89.7072L93.9773 250.693L98.3072 239.591H102.757Z" fill="#DEFA8E"/>
<path d="M125.166 235.46V238.701H119.612V255.484H115.432V238.701H109.877V235.46H125.166Z" fill="#DEFA8E"/>
<path d="M138.369 242.058C138.907 241.216 139.604 240.556 140.46 240.078C141.336 239.6 142.331 239.361 143.446 239.361V243.578H142.341C141.027 243.578 140.032 243.875 139.355 244.468C138.698 245.06 138.369 246.093 138.369 247.566V255.484H134.189V239.591H138.369V242.058Z" fill="#DEFA8E"/>
<path d="M167.612 247.193C167.612 247.767 167.572 248.283 167.493 248.742H155.399C155.499 249.89 155.917 250.788 156.653 251.439C157.39 252.089 158.296 252.414 159.371 252.414C160.923 252.414 162.028 251.773 162.685 250.492H167.194C166.716 252.022 165.801 253.284 164.447 254.279C163.093 255.254 161.431 255.742 159.46 255.742C157.868 255.742 156.434 255.407 155.16 254.738C153.906 254.049 152.921 253.083 152.204 251.84C151.507 250.597 151.159 249.163 151.159 247.537C151.159 245.892 151.507 244.448 152.204 243.205C152.901 241.962 153.876 241.006 155.13 240.336C156.384 239.667 157.828 239.332 159.46 239.332C161.033 239.332 162.436 239.658 163.671 240.308C164.925 240.958 165.89 241.886 166.567 243.091C167.264 244.276 167.612 245.644 167.612 247.193ZM163.282 246.045C163.263 245.013 162.874 244.19 162.118 243.578C161.361 242.947 160.436 242.632 159.341 242.632C158.306 242.632 157.43 242.938 156.713 243.55C156.016 244.142 155.588 244.974 155.429 246.045H163.282Z" fill="#DEFA8E"/>
<path d="M192.014 247.193C192.014 247.767 191.975 248.283 191.895 248.742H179.801C179.901 249.89 180.319 250.788 181.055 251.439C181.792 252.089 182.698 252.414 183.773 252.414C185.326 252.414 186.43 251.773 187.087 250.492H191.596C191.119 252.022 190.203 253.284 188.849 254.279C187.495 255.254 185.833 255.742 183.862 255.742C182.27 255.742 180.836 255.407 179.562 254.738C178.308 254.049 177.323 253.083 176.606 251.84C175.909 250.597 175.561 249.163 175.561 247.537C175.561 245.892 175.909 244.448 176.606 243.205C177.303 241.962 178.278 241.006 179.532 240.336C180.787 239.667 182.23 239.332 183.862 239.332C185.435 239.332 186.838 239.658 188.073 240.308C189.327 240.958 190.292 241.886 190.969 243.091C191.666 244.276 192.014 245.644 192.014 247.193ZM187.685 246.045C187.665 245.013 187.276 244.19 186.52 243.578C185.763 242.947 184.838 242.632 183.743 242.632C182.708 242.632 181.832 242.938 181.115 243.55C180.418 244.142 179.99 244.974 179.831 246.045H187.685Z" fill="#DEFA8E"/>
<path d="M78.5525 48.6329C86.0896 47.2998 93.1681 50.9689 95.1774 58.3419C95.4571 59.3685 95.4862 60.9645 95.6567 62.0968C96.2159 62.3044 96.4288 62.2925 97.0385 62.3438C96.6025 62.4039 96.1327 62.3987 95.843 62.6745C95.7693 63.1354 95.8775 63.5012 95.8105 63.8146C95.644 63.8626 95.3802 63.8857 95.3415 64.0448C94.5194 67.4243 93.4247 69.5613 90.7431 72.102C91.3431 73.3805 92.0847 74.4891 92.8227 75.6982C95.383 79.8924 97.8969 84.1925 99.8964 88.6646C100.347 89.6735 100.745 90.701 101.201 91.7063C101.31 92.1289 101.329 92.1068 101.619 92.4522L101.71 92.8692C101.639 92.9231 106.35 86.4058 106.866 85.7281C108.08 87.2446 108.397 87.1415 110.185 87.8844C110.27 88.0272 110.355 88.1702 110.44 88.3131C110.335 88.7315 108.755 91.396 108.431 92.1151L108.6 92.2832C102.643 105.046 103.987 109.864 109.892 122.195C111.926 118.358 115.011 117.101 115.711 112.997C116.036 111.1 115.037 108.716 114.714 106.895C114.672 106.66 114.898 106.602 115.132 106.459C115.916 106.398 116.469 106.761 117.038 107.242C118.649 108.607 118.949 110.83 118.678 112.738C121.199 110.178 126.533 101.266 129.38 99.9962C129.797 100.025 129.657 99.9823 130.028 100.14L130.714 100.137C131.485 100.558 132.091 100.869 132.891 101.238L132.535 101.424C129.629 105.649 127.616 108.01 125.763 113.059C128.399 111.966 131.749 110.622 134.593 110.191C136.358 109.617 138.539 109.507 140.65 108.796C141.146 109.006 140.94 109.032 141.314 108.893C142.412 108.719 144.598 108.602 145.822 108.493C148.181 105.324 150.895 105.862 153.125 108.726C158.902 109.087 163.502 108.275 168.325 105.052C169.505 104.263 171.723 101.426 172.85 103.274C172.829 103.505 172.795 103.709 172.624 103.887C169.786 106.844 165.172 109.243 161.215 110.141C164.896 110.678 175.578 114.839 179.416 116.536C180.714 114.912 181.887 113.537 183.711 112.443C182.36 109.745 180.445 106.145 178.732 103.667C176.249 103.739 174.466 103.823 172.355 102.276C171.08 101.342 169.914 99.7438 169.862 98.1791C169.743 94.713 170.619 94.3989 172.508 92.2271C172.431 92.0144 172.374 91.8721 172.28 91.6613L172.19 91.46C170.812 89.9546 170.29 87.1798 170.135 85.2522L170.275 84.9782C170.708 84.7768 171.284 84.8639 171.787 84.8885C172.014 87.7725 172.286 88.7594 173.975 91.1584C174.604 91.4012 175.447 91.3031 176.132 91.2546C179.347 91.0266 181.275 92.6602 182.649 95.3816C182.729 95.9949 182.791 96.4078 182.937 97.008C182.922 99.8378 182.297 100.803 180.457 102.911C181.106 104.511 184.322 110.179 185.426 111.529C186.708 110.896 188.75 110.598 190.191 110.5C194.613 110.198 199.567 112.591 201.901 116.279L202.359 117.23C204.074 120.016 204.558 123.345 203.706 126.477C202.856 129.722 200.693 132.507 197.699 134.216C194.65 135.937 192.167 136.199 188.776 136.118C187.336 137.724 185.303 140.394 183.955 141.715C184.396 142.878 184.823 144.141 184.138 145.279C182.586 147.855 180.111 147.394 178.093 145.961C175.499 147.297 171.106 149.063 168.268 149.527C167.512 149.951 164.254 150.134 163.286 150.239C155.255 151.109 149.639 147.346 142.996 143.788C138.441 141.348 134.093 141.768 129.288 143.354C128.541 143.759 127.314 144.298 126.678 144.738C122.581 147.567 120.252 152.096 118.835 156.63C118.473 157.784 118.06 160.198 117.706 161.091C117.048 163.267 116.38 166.341 115.495 168.35C115.214 169.44 114.983 170.199 114.603 171.259C114.348 170.721 114.708 166.038 114.593 164.568C113.889 155.638 109.801 147.25 104.341 140.103C103.425 138.906 102.13 137.591 101.105 136.367C98.6738 127.28 93.5367 119.073 86.3234 112.75C84.9811 111.558 83.1627 110.198 81.7114 109.067C83.1861 108.168 83.7997 107.48 84.7904 106.137C90.269 109.413 93.99 112.023 98.3205 116.746C97.6509 114.506 97.4082 112.28 96.5322 110.039C95.1767 106.573 92.9413 103.335 89.4882 101.519C88.5867 101.045 86.9974 100.531 85.9324 100.065C85.6546 99.4016 85.3804 98.6286 85.1228 97.9491C85.8407 98.0754 86.3911 98.1915 87.0969 98.3696L87.1398 98.6028C88.8271 98.9725 92.1634 100.606 93.7303 101.516C94.1455 101.756 95.2812 102.795 95.525 102.845L95.6655 102.732C96.2905 103.227 96.7322 103.783 97.2541 104.377C96.9857 101.642 97.0986 98.7545 96.8142 95.8988C96.1404 89.1334 92.1989 79.4537 88.5431 73.6479C86.7608 74.5065 86.0957 74.6529 84.1141 75.0593C83.1717 74.8084 82.3955 74.9928 81.4459 74.9833C79.5432 74.9642 76.8863 74.2894 75.2417 73.4533C72.5848 72.0045 69.8157 69.3754 68.9531 66.5116C68.8841 66.2823 67.8949 64.2036 67.7004 64.0968C66.7428 63.5707 65.4068 64.0346 64.3612 64.0871C63.1539 64.1478 61.9044 64.061 60.7251 64.3362C60.3311 64.4278 60.3812 64.4507 60.2177 64.7467C59.9759 64.6354 59.9384 64.457 59.7714 64.1853C59.7916 63.4213 59.5211 63.1015 59.7918 62.5973C59.9185 62.7134 60.4401 63.1767 60.5263 63.1812C61.7676 63.2444 66.8359 63.2021 67.7491 62.8873C67.9383 61.9989 68.1481 59.9854 68.2332 58.9912L67.9572 58.9587C68.174 57.987 68.3175 57.5788 68.677 56.6465C67.7606 55.7935 65.3409 53.9087 65.2501 52.7884L65.4683 52.6802C66.5952 52.957 68.3789 54.5598 69.2473 55.3451C69.9224 54.2161 70.9448 52.7367 72.0276 51.9602C73.258 50.7729 74.2452 50.2346 75.7871 49.5153C76.8551 49.0833 77.4243 48.9223 78.5525 48.6329ZM137.392 117.892C136.553 117.091 135.677 116.472 134.674 115.867C133.922 115.528 133.042 115.242 132.223 114.879C125.769 117.51 121.579 121.619 118.966 127.848C118.675 128.547 118.409 129.257 118.171 129.975C117.738 131.489 117.345 132.864 117.038 134.412C116.77 135.753 116.631 137.323 116.336 138.618C117.26 137.828 120.073 135.335 120.949 134.953C122.172 133.881 126.177 131.835 127.702 131.032C127.899 130.473 129.641 128.651 130.154 128.095C128.69 126.645 128.003 125.51 128.04 123.371C128.085 120.836 129.107 118.75 131.632 117.751C132.922 118.372 133.402 118.829 133.93 120.214C134.528 121.783 134.263 123.977 133.511 125.471C132.742 126.999 131.629 127.32 130.299 128.248C129.81 128.994 129.556 129.267 128.964 129.907L129.443 130.184L129.429 130.35C128.967 130.552 128.892 130.527 128.551 130.864C136.984 128.665 142.083 127.728 151.048 128.006C152.164 129.778 152.67 130.608 154.468 131.808C153.245 131.968 151.148 132.311 149.962 132.394L149.326 132.932C153.402 133.305 159.189 135.031 163.324 135.813C164.551 136.045 167.442 136.479 168.383 136.749C169.31 135.233 169.998 134.405 171.91 133.924C172.998 133.65 174.295 133.626 175.297 134.193C175.996 134.589 176.497 135.24 176.692 135.996C177.636 139.598 172.371 141.622 169.698 139.582C169.41 139.362 168.193 138.342 167.945 138.267C162.366 136.597 155.368 134.567 149.596 134.07C147.432 133.884 145.252 133.933 143.099 134.217C139.141 134.714 134.88 135.961 131.423 137.902C131.024 138.125 129.515 139.067 129.249 139.159L128.392 139.839C127.664 140.376 127.161 140.734 126.51 141.359C127.009 141.195 127.734 140.991 128.167 140.735L128.528 140.724C129.246 140.828 131.198 140.095 132.264 139.879C133.225 140.234 133.966 140.266 134.558 140.831C134.925 142.386 130.286 142.194 129.237 143.215L129.288 143.354C134.093 141.768 138.441 141.348 142.996 143.788C149.639 147.346 155.255 151.109 163.286 150.239C164.254 150.134 167.512 149.951 168.268 149.527C171.106 149.063 175.499 147.297 178.093 145.961C180.111 147.394 182.586 147.855 184.138 145.279C184.823 144.141 184.396 142.878 183.955 141.715C185.303 140.394 187.336 137.724 188.776 136.118C192.167 136.199 194.65 135.937 197.699 134.216C200.693 132.507 202.856 129.722 203.706 126.477C204.558 123.345 204.074 120.016 202.359 117.23L201.901 116.279C199.567 112.591 194.613 110.198 190.191 110.5C188.75 110.598 186.708 110.896 185.426 111.529C184.322 110.179 181.106 104.511 180.457 102.911C182.297 100.803 182.922 99.8378 182.937 97.008C182.791 96.4078 182.729 95.9949 182.649 95.3816C181.275 92.6602 179.347 91.0266 176.132 91.2546C175.447 91.3031 174.604 91.4012 173.975 91.1584C172.286 88.7594 172.014 87.7725 171.787 84.8885C171.284 84.8639 170.708 84.7768 170.275 84.9782L170.135 85.2522C170.29 87.1798 170.812 89.9546 172.19 91.46L172.28 91.6613C172.374 91.8721 172.431 92.0144 172.508 92.2271C170.619 94.3989 169.743 94.713 169.862 98.1791C169.914 99.7438 171.08 101.342 172.355 102.276C174.466 103.823 176.249 103.739 178.732 103.667C180.445 106.145 182.36 109.745 183.711 112.443C181.887 113.537 180.714 114.912 179.416 116.536C175.578 114.839 164.896 110.678 161.215 110.141C165.172 109.243 169.786 106.844 172.624 103.887C172.795 103.709 172.829 103.505 172.85 103.274C171.723 101.426 169.505 104.263 168.325 105.052C163.502 108.275 158.902 109.087 153.125 108.726C150.895 105.862 148.181 105.324 145.822 108.493C144.598 108.602 142.412 108.719 141.314 108.893C140.94 109.032 141.146 109.006 140.65 108.796C138.539 109.507 136.358 109.617 134.593 110.191C135.645 110.67 139.482 109.121 140.546 109.143C142.314 109.178 144.734 108.573 146.296 108.968C145.679 109.56 145.705 109.366 145.508 110.071C144.809 109.761 144.31 109.02 143.437 109.304C142.786 109.516 142.125 111.253 141.753 111.428C140.498 112.018 138.188 112.455 136.841 112.766L136.838 113.048C135.801 113.434 133.463 114.433 132.586 114.678C133.832 114.938 134.247 115.036 135.406 115.647C136.064 116.136 137.069 116.942 137.812 117.262C138.641 117.602 139.514 117.236 140.388 117.361C143.272 117.763 145.265 120.338 145.69 122.962C145.891 124.197 145.089 125.313 143.759 125.247C139.239 125.024 136.461 122.151 137.392 117.892ZM72.7822 69.3462C74.9835 72.4961 79.1002 73.3624 82.8213 73.1895C85.8286 72.6881 88.9695 71.7783 90.5428 69.0253C88.9188 64.5511 85.1407 63.4258 80.5876 63.6995C76.6693 64.1487 73.7245 65.2149 72.7822 69.3462ZM80.8579 53.4123C74.8166 54.8362 76.3536 63.4137 82.4461 62.796C85.361 61.972 86.8665 59.2072 85.9535 56.4384C85.5854 55.2846 84.7287 54.333 83.5931 53.817C82.7384 53.4321 81.7909 53.3327 80.8579 53.4123Z" fill="#DEFA8E"/>
<path d="M158.608 116.296C161.734 115.914 164.833 117.175 166.722 119.599C168.611 122.022 169 125.233 167.74 128.009C166.48 130.784 163.766 132.694 160.632 133.013C155.856 133.498 151.564 130.198 151.01 125.616C150.455 121.033 153.844 116.876 158.608 116.296ZM154.129 129.083C155.649 131.12 157.475 131.469 159.924 131.66C167.464 130.848 166.158 126.009 159.301 125.941C156.834 126.111 155.523 126.558 154.302 128.768L154.192 128.963C154.172 129.003 154.15 129.042 154.129 129.083ZM160.116 125.412C161.859 124.636 162.211 124.156 162.568 122.354C162.025 120.807 161.271 119.669 159.336 119.708C158.383 120.007 157.805 120.248 157.297 121.147C156.908 121.835 156.82 122.644 157.051 123.395C157.275 124.118 157.795 124.722 158.493 125.069C158.983 125.316 159.563 125.424 160.116 125.412Z" fill="#DEFA8E"/>
<path d="M128.551 130.864C136.984 128.665 142.083 127.728 151.048 128.006C152.164 129.778 152.67 130.608 154.468 131.808C153.245 131.968 151.148 132.311 149.962 132.394L149.326 132.932C153.402 133.305 159.189 135.031 163.324 135.813C164.551 136.045 167.442 136.479 168.383 136.749C169.31 135.233 169.998 134.405 171.91 133.924C172.998 133.65 174.295 133.626 175.297 134.193C175.996 134.589 176.497 135.24 176.692 135.996C177.636 139.598 172.371 141.622 169.698 139.582C169.41 139.362 168.193 138.342 167.945 138.267C162.366 136.597 155.368 134.567 149.596 134.07C147.432 133.884 145.252 133.933 143.099 134.217C139.141 134.714 134.88 135.961 131.423 137.902C131.024 138.125 129.515 139.067 129.249 139.159C129.1 139.127 129.177 139.158 129.025 139.044C129.54 138.522 129.992 138.453 130.499 138.096C131.148 137.638 130.887 136.374 131.156 135.465C131.698 134.997 131.996 134.667 132.473 134.148C133.988 133.553 135.187 133.14 136.737 132.663C137.704 132.367 139.801 132.082 140.404 131.74L140.432 131.528C139.189 130.768 133.915 132.172 132.586 132.807C129.807 133.622 127.067 134.574 124.523 135.928C124.633 135.646 124.657 135.605 124.833 135.371L124.745 135.111C121.256 133.641 122.694 135.04 120.949 134.953C122.172 133.881 126.177 131.835 127.702 131.032L127.791 131.101C128.133 131.037 128.218 130.986 128.551 130.864Z" fill="#DEFA8E"/>
<path d="M132.223 114.879L132.586 114.678C133.832 114.938 134.247 115.036 135.406 115.647L134.674 115.867C133.922 115.528 133.042 115.242 132.223 114.879Z" fill="#DEFA8E"/>
<path d="M128.392 139.839C128.57 140.349 128.654 140.353 128.167 140.735C127.734 140.991 127.009 141.195 126.51 141.359C127.161 140.734 127.664 140.376 128.392 139.839Z" fill="#DEFA8E"/>
<path d="M170.135 85.2522L170.275 84.9782C170.708 84.7768 171.284 84.8639 171.787 84.8885C172.014 87.7725 172.286 88.7594 173.975 91.1584C174.604 91.4012 175.447 91.3031 176.132 91.2546C179.347 91.0266 181.275 92.6602 182.649 95.3816C182.729 95.9949 182.791 96.4078 182.937 97.008C182.922 99.8378 182.297 100.803 180.457 102.911C181.106 104.511 184.322 110.179 185.426 111.529C186.708 110.896 188.75 110.598 190.191 110.5C194.613 110.198 199.567 112.591 201.901 116.279L202.359 117.23C204.074 120.016 204.558 123.345 203.706 126.477C202.856 129.722 200.693 132.507 197.699 134.216C194.65 135.937 192.167 136.199 188.776 136.118C187.336 137.724 185.303 140.394 183.955 141.715C184.396 142.878 184.823 144.141 184.138 145.279C182.586 147.855 180.111 147.394 178.093 145.961C175.499 147.297 171.106 149.063 168.268 149.527C167.512 149.951 164.254 150.134 163.286 150.239C155.255 151.109 149.639 147.346 142.996 143.788C138.441 141.348 134.093 141.768 129.288 143.354L129.237 143.215C130.286 142.194 134.925 142.386 134.558 140.831C133.966 140.266 133.225 140.234 132.264 139.879C131.198 140.095 129.246 140.828 128.528 140.724C133.235 138.585 139.758 139.092 144.212 141.39C146.126 142.378 149.735 144.925 151.825 144.461C153.221 143.565 152.054 139.779 156.464 138.699C162.229 137.287 160.413 143.02 157.101 144.364C155.015 145.211 152.712 145.008 150.437 145.349C157.704 148.424 161.457 149.362 169.541 147.352C169.856 147.215 171.434 146.74 171.878 146.592C173.919 145.911 175.532 145.291 177.438 144.285C177.945 141.344 179.263 140.115 182.379 140.686C184.024 139.093 185.61 136.903 187.151 135.486C186.717 135.349 186.289 135.201 185.865 135.036C181.452 133.273 179.723 130.747 177.97 126.664C174.557 127.436 171.151 128.324 167.728 129.025C167.996 128.356 168.205 127.463 168.396 126.756C170.865 126.155 175.064 125.363 177.596 124.964C177.467 122.797 177.588 120.529 178.571 118.531C173.978 115.769 164.384 112.659 159.019 111.489C157.469 111.15 154.974 110.932 153.316 110.814C151.196 114.199 148.314 114.348 145.802 111.24C142.262 111.669 140.276 112.239 136.838 113.048L136.841 112.766C138.188 112.455 140.498 112.018 141.753 111.428C142.125 111.253 142.786 109.516 143.437 109.304C144.31 109.02 144.809 109.761 145.508 110.071C145.705 109.366 145.679 109.56 146.296 108.968C144.734 108.573 142.314 109.178 140.546 109.143C139.482 109.121 135.645 110.67 134.593 110.191C136.358 109.617 138.539 109.507 140.65 108.796C141.146 109.006 140.94 109.032 141.314 108.893C142.412 108.719 144.598 108.602 145.822 108.493C148.181 105.324 150.895 105.862 153.125 108.726C158.902 109.087 163.502 108.275 168.325 105.052C169.505 104.263 171.723 101.426 172.85 103.274C172.829 103.505 172.795 103.709 172.624 103.887C169.786 106.844 165.172 109.243 161.215 110.141C164.896 110.678 175.578 114.839 179.416 116.536C180.714 114.912 181.887 113.537 183.711 112.443C182.36 109.745 180.445 106.145 178.732 103.667C176.249 103.739 174.466 103.823 172.355 102.276C171.08 101.342 169.914 99.7438 169.862 98.1791C169.743 94.713 170.619 94.3989 172.508 92.2271C172.431 92.0144 172.374 91.8721 172.28 91.6613L172.19 91.46C170.812 89.9546 170.29 87.1798 170.135 85.2522ZM190.779 125.108C188.45 125.25 185.487 125.819 183.962 127.593C180.005 132.197 188.09 133.964 191.189 133.939C194.156 133.71 197.731 132.922 199.104 130.056C197.649 126.19 194.746 125.188 190.779 125.108ZM190.528 115.518C184.784 116.671 185.808 124.447 191.38 124.302C197.288 122.481 195.554 115.193 190.528 115.518ZM177.316 98.5589C178.618 98.088 179.274 96.6912 178.781 95.4419C178.287 94.1924 176.832 93.5656 175.532 94.0428C174.238 94.5183 173.589 95.9108 174.08 97.1556C174.572 98.4004 176.019 99.0281 177.316 98.5589ZM176.554 101.976C177.631 101.828 179.583 101.382 179.586 100.101C178.922 99.0534 177.268 99.1096 176.127 99.0966C175.069 99.1711 173.175 99.3092 173.216 100.648C173.832 101.677 175.407 101.914 176.554 101.976Z" fill="#DEFA8E"/>
<path d="M128.528 140.724C133.235 138.585 139.758 139.092 144.212 141.39C146.126 142.378 149.735 144.925 151.825 144.461C153.221 143.565 152.054 139.779 156.464 138.699C162.229 137.287 160.413 143.02 157.101 144.364C155.015 145.211 152.712 145.008 150.437 145.349C157.704 148.424 161.457 149.362 169.541 147.352C168.761 148.122 165.947 148.341 164.824 148.491C160.047 149.132 155.178 147.931 150.94 145.836C150.377 145.56 149.928 146.231 149.773 146.654L149.282 146.769C149.81 147.626 154.944 149.278 156.273 149.584C159.532 150.336 164.247 150.084 167.556 149.493C168.027 149.409 168.082 149.337 168.268 149.527C167.512 149.951 164.254 150.134 163.286 150.239C155.255 151.109 149.639 147.346 142.996 143.788C138.441 141.348 134.093 141.768 129.288 143.354L129.237 143.215C130.286 142.194 134.925 142.386 134.558 140.831C133.966 140.266 133.225 140.234 132.264 139.879C131.198 140.095 129.246 140.828 128.528 140.724Z" fill="#DEFA8E"/>
<path d="M170.135 85.2522L170.275 84.9782C170.708 84.7768 171.284 84.8639 171.787 84.8885C172.014 87.7725 172.286 88.7594 173.975 91.1584C172.045 90.4049 172.359 87.2758 171.274 86.9253C169.789 87.7377 172.175 90.3204 172.19 91.46C170.812 89.9546 170.29 87.1798 170.135 85.2522Z" fill="#DEFA8E"/>
<path d="M177.528 95.4778C177.78 95.6665 177.667 95.5621 177.806 95.8857L177.625 96.2041L177.581 96.1705L177.528 95.4778Z" fill="#DEFA8E"/>
<path d="M98.1312 108.507C97.8649 104.793 98.4147 101.255 99.2261 97.6176C99.4988 98.0548 98.7534 99.9197 99.0001 100.982C99.0135 99.9552 99.3435 99.1389 99.5768 98.1472C99.7218 97.5308 99.5035 96.4558 99.9928 96.0095C100.266 96.0446 100.435 96.0796 100.704 96.1399C100.85 98.143 100.339 101.162 101.01 102.988C101.073 110.257 103.042 115.726 106.786 121.997C107.24 122.758 108.596 125.226 109.22 125.644C109.533 126.229 109.739 126.64 110.13 127.189L110.326 127.185L110.631 126.562C110.933 125.94 110.953 125.853 111.417 125.308L111.513 125.197C110.987 126.315 110.589 127.062 110.425 128.294C110.981 129.591 111.351 130.449 112.067 131.686C112.303 129.932 113.231 127.016 114.112 125.471L114.191 125.693C114.427 125.034 115.531 122.882 116.004 122.414L116.141 122.362C116.295 122.518 116.407 122.681 116.485 122.882C116.967 124.157 119.301 124.33 119.665 125.552C118.997 126.964 118.3 128.355 117.962 129.881L118.171 129.975C117.738 131.489 117.345 132.864 117.038 134.412C116.77 135.753 116.631 137.323 116.336 138.618C117.26 137.828 120.073 135.335 120.949 134.953C122.694 135.04 121.256 133.641 124.745 135.111L124.833 135.371C124.657 135.605 124.633 135.646 124.523 135.928C127.067 134.574 129.807 133.622 132.586 132.807C133.915 132.172 139.189 130.768 140.432 131.528L140.404 131.74C139.801 132.082 137.704 132.367 136.737 132.663C135.187 133.14 133.988 133.553 132.473 134.148C131.996 134.667 131.698 134.997 131.156 135.465C130.887 136.374 131.148 137.638 130.499 138.096C129.992 138.453 129.54 138.522 129.025 139.044C129.177 139.158 129.1 139.127 129.249 139.159L128.392 139.839C127.664 140.376 127.161 140.734 126.51 141.359C127.009 141.195 127.734 140.991 128.167 140.735L128.528 140.724C129.246 140.828 131.198 140.095 132.264 139.879C133.225 140.234 133.966 140.266 134.558 140.831C134.925 142.386 130.286 142.194 129.237 143.215L129.288 143.354C128.541 143.759 127.314 144.298 126.678 144.738C122.581 147.567 120.252 152.096 118.835 156.63C118.473 157.784 118.06 160.198 117.706 161.091C117.048 163.267 116.38 166.341 115.495 168.35C115.214 169.44 114.983 170.199 114.603 171.259C114.348 170.721 114.708 166.038 114.593 164.568C113.889 155.638 109.801 147.25 104.341 140.103C103.425 138.906 102.13 137.591 101.105 136.367C98.6738 127.28 93.5367 119.073 86.3234 112.75C84.9811 111.558 83.1627 110.198 81.7114 109.067C83.1861 108.168 83.7997 107.48 84.7904 106.137C90.269 109.413 93.99 112.023 98.3205 116.746L98.6111 117.174L98.7662 117.189C98.6228 116.709 98.469 116.23 98.3052 115.755L98.5352 115.603L98.4861 115.553C98.7781 115.758 99.0738 115.959 99.3731 116.154C99.5879 116.879 99.7207 117.732 100.276 118.185C99.2756 114.672 98.6494 112.107 98.1312 108.507Z" fill="#DEFA8E"/>
<path d="M84.7904 106.137C90.269 109.413 93.99 112.023 98.3205 116.746L98.6111 117.174L98.7662 117.189C98.6228 116.709 98.469 116.23 98.3052 115.755L98.5352 115.603L98.4861 115.553C98.7781 115.758 99.0738 115.959 99.3731 116.154C99.5879 116.879 99.7207 117.732 100.276 118.185C101.013 119.8 101.744 121.603 102.58 123.143C104.186 126.097 106.167 128.965 107.84 131.873C113.929 142.456 117.672 154.3 115.648 166.46C115.55 167.043 115.423 167.764 115.495 168.35C115.214 169.44 114.983 170.199 114.603 171.259C114.348 170.721 114.708 166.038 114.593 164.568C113.889 155.638 109.801 147.25 104.341 140.103C103.425 138.906 102.13 137.591 101.105 136.367C98.6738 127.28 93.5367 119.073 86.3234 112.75C84.9811 111.558 83.1627 110.198 81.7114 109.067C83.1861 108.168 83.7997 107.48 84.7904 106.137Z" fill="#DEFA8E"/>
<path d="M132.586 132.807C133.915 132.172 139.189 130.768 140.432 131.528L140.404 131.74C139.801 132.082 137.704 132.367 136.737 132.663C135.187 133.14 133.988 133.553 132.473 134.148C130.327 135 128.1 136.263 126.427 137.829C126.02 138.21 125.688 138.714 125.277 138.624C119.161 143.528 117.84 156.684 117.544 156.917L117.304 156.777C117.261 153.681 116.38 149.662 116.409 146.38C116.442 143.03 119.23 140.123 121.676 138.019C122.442 137.36 123.912 136.607 124.523 135.928C127.067 134.574 129.807 133.622 132.586 132.807Z" fill="#DEFA8E"/>
<path d="M132.586 132.807C133.915 132.172 139.189 130.768 140.432 131.528L140.404 131.74C139.801 132.082 137.704 132.367 136.737 132.663C135.187 133.14 133.988 133.553 132.473 134.148C130.327 135 128.1 136.263 126.427 137.829C126.02 138.21 125.688 138.714 125.277 138.624C128.06 135.836 131.521 133.755 135.35 132.571C136.556 132.201 137.873 131.955 139.134 131.59L138.594 131.733L138.803 131.608C137.142 131.86 134.016 132.763 132.586 132.807Z" fill="#DEFA8E"/>
<path d="M119.015 116.99L119.063 117.262C118.766 117.591 118.44 117.927 118.191 118.284C117.21 119.476 114.542 124.063 114.112 125.471C113.231 127.016 112.303 129.932 112.067 131.686C111.351 130.449 110.981 129.591 110.425 128.294C110.589 127.062 110.987 126.315 111.513 125.197C113.066 122.863 115.115 120.656 117.077 118.619C117.554 118.124 118.386 117.654 118.858 117.159L119.015 116.99Z" fill="#DEFA8E"/>
<path d="M101.01 102.988C101.163 102.43 101.198 102.298 101.122 101.73L101.331 101.52C101.665 106.556 103.174 112.253 105.391 116.871C105.649 117.41 105.356 118.287 105.803 118.815C106.846 121.335 107.806 123.291 109.22 125.644C108.596 125.226 107.24 122.758 106.786 121.997C103.042 115.726 101.073 110.257 101.01 102.988Z" fill="#DEFA8E"/>
<path d="M85.1228 97.9491C85.8407 98.0754 86.3911 98.1915 87.0969 98.3696L87.1398 98.6028C86.6343 98.5047 86.0183 98.2806 85.6785 98.4962C86.3023 100.718 86.4018 99.8569 88.3395 100.644C93.6026 102.781 96.899 108.177 97.7582 113.399C97.7786 113.524 98.2918 113.683 98.4147 113.732C99.0586 113.11 97.8937 109.711 98.1312 108.507C98.6494 112.107 99.2756 114.672 100.276 118.185C99.7207 117.732 99.5879 116.879 99.3731 116.154C99.0738 115.959 98.7781 115.758 98.4861 115.553L98.5352 115.603L98.3052 115.755C98.469 116.23 98.6228 116.709 98.7662 117.189L98.6111 117.174L98.3205 116.746C97.6509 114.506 97.4082 112.28 96.5322 110.039C95.1767 106.573 92.9413 103.335 89.4882 101.519C88.5867 101.045 86.9974 100.531 85.9324 100.065C85.6546 99.4016 85.3804 98.6286 85.1228 97.9491Z" fill="#DEFA8E"/>
<path d="M72.0276 51.9602L72.1195 52.1776C70.1911 54.1098 68.6463 56.2528 68.2332 58.9912L67.9572 58.9587C68.174 57.987 68.3175 57.5788 68.677 56.6465C67.7606 55.7935 65.3409 53.9087 65.2501 52.7884L65.4683 52.6802C66.5952 52.957 68.3789 54.5598 69.2473 55.3451C69.9224 54.2161 70.9448 52.7367 72.0276 51.9602Z" fill="#DEFA8E"/>
<path d="M119.015 116.99L118.959 116.781C119.458 116.321 119.975 115.771 120.579 115.48L120.681 115.62C120.247 116.66 119.238 117.796 118.191 118.284C118.44 117.927 118.766 117.591 119.063 117.262L119.015 116.99Z" fill="#DEFA8E"/>
<path d="M29.6694 92.7543L29.9007 92.7137C32.0391 89.6341 34.6471 87.7429 38.5054 87.0285C42.1426 86.3459 45.9126 87.1038 48.9598 89.1305C52.0894 91.2222 53.823 94.1871 54.4748 97.749C54.5251 98.0129 54.564 98.2787 54.5915 98.5458C54.2264 99.4532 53.9671 99.9982 54.631 100.864C54.2999 103.493 53.2158 105.981 51.4993 108.052C51.1472 108.472 48.9996 110.362 48.983 110.588C50.5354 111.129 54.0721 112.899 55.6724 113.693C58.4076 115.049 62.3011 116.786 64.7892 118.426C64.3579 117.937 63.305 116.724 63.2367 116.116C63.2763 114.825 62.2707 114.463 62.2463 112.61C62.4789 112.929 62.4969 113.027 62.6538 113.384L62.8835 113.377C63.6982 114.8 64.5235 116.234 65.5511 117.535C65.9917 118.093 67.4837 119.131 67.7684 119.628C73.4508 122.719 76.9478 124.389 83.225 126.443L84.8882 127.227L83.1227 125.59C82.1742 124.278 81.5371 123.265 80.7721 121.835C79.0296 121.783 78.4703 121.549 76.9236 120.22C75.2819 118.808 73.3475 112.504 77.3514 112.646C78.5497 112.688 80.4466 114.425 81.0761 115.419C82.6976 117.639 82.3784 119.255 81.6591 121.682C82.6521 124.313 84.7374 126.628 87.3917 127.817C87.5771 127.9 87.7634 127.981 87.9506 128.061C86.8302 126.014 85.9312 123.41 88.4138 121.726C88.6376 121.574 88.831 121.636 89.1034 121.643C89.4826 121.89 89.6983 122.091 89.7451 122.588C90.028 125.593 88.7819 127.376 91.8684 129.58C93.4222 130.688 95.3751 131.662 97.0144 132.838C98.562 133.947 99.6978 135.216 101.105 136.367C102.13 137.591 103.425 138.906 104.341 140.103C109.801 147.25 113.889 155.638 114.593 164.568C114.708 166.038 114.348 170.721 114.603 171.259C114.983 170.199 115.214 169.44 115.495 168.35C116.38 166.341 117.048 163.267 117.706 161.091C118.004 162.166 118.028 162.452 118.833 163.273C118.561 164.969 118.276 166.663 117.979 168.354C117.454 169.814 117.038 171.417 116.495 172.844C115.735 174.846 114.467 177.126 113.303 178.966C112.655 179.904 110.731 182.848 109.915 183.457C109.783 183.168 109.811 183.244 109.75 182.942L109.051 182.786C109.362 182.449 109.428 182.425 109.58 181.992L109.365 181.892L108.808 182.121C108.425 182.013 108.124 181.853 107.774 182.075C106.382 182.961 105.758 183.977 104.29 184.859C101.982 187.499 90.6836 193.275 87.3705 194.373C85.7266 195.02 82.2846 196.46 80.6231 196.91C80.0352 196.581 78.6091 197.417 77.6446 197.644L77.6199 197.536C79.0386 196.785 80.4036 195.942 81.7056 195.015C82.8445 194.201 86.0276 191.948 86.2099 190.783C86.4136 190.376 87.6014 189.05 87.9886 188.561C97.11 177.046 98.8998 158.165 91.5668 145.553C82.7113 141.609 76.9642 139.577 67.1162 143.431C64.3417 144.517 61.0607 146.289 58.3168 147.164C49.7547 149.891 40.726 148.837 32.7164 145.092C28.9435 149.125 23.4351 145.787 25.057 141.223L25.1324 141.015C24.3782 140.067 22.9614 138.958 22.0544 138.057C20.7097 136.718 19.5653 135.411 18.3705 133.946C9.13607 138.432 -1.21305 129.402 1.78107 120.092C2.94985 116.458 4.58275 114.791 7.9689 112.968C8.5772 113.037 8.66669 112.919 9.10405 112.584C10.0105 111.976 12.8814 111.735 14.0792 111.872C18.4113 112.372 20.5897 113.925 23.247 116.975C25.9667 114.929 30.0408 111.496 32.7134 109.724C30.6049 107.942 30.2558 106.594 28.8758 104.94C28.7619 104.245 28.686 104.055 28.4373 103.381C27.6108 101.229 27.6284 98.0967 28.3683 95.9392C28.5417 95.4333 28.8934 94.6879 28.8341 94.2697C28.7895 93.6045 29.192 93.2939 29.6694 92.7543ZM24.0752 118.503C24.9478 121.186 24.9913 122.113 25.0023 124.954C30.1293 125.946 35.346 126.449 40.5759 126.451C42.9174 126.457 45.15 126.308 47.4697 126.283C45.2247 125.174 44.4584 124.438 42.5707 122.757C41.1023 122.903 39.4984 123.055 38.2271 122.112C35.791 120.305 36.6974 115.369 40.0788 115.22C42.5563 115.11 44.1374 117.989 43.9429 120.09C43.8979 120.746 43.7911 121.277 43.6619 121.9C47.6255 126.265 49.8671 126.14 55.6174 125.472C59.5692 125.014 64.412 124.282 68.3299 124.677C66.3548 123.521 47.9172 112.943 47.6337 112.597L47.6206 112.438C47.3766 112.143 47.2545 112.135 46.8862 112.01L46.763 111.969L46.8145 111.843C47.4209 111.581 48.5362 111.063 48.983 110.588C48.9996 110.362 51.1472 108.472 51.4993 108.052C53.2158 105.981 54.2999 103.493 54.631 100.864C53.9671 99.9982 54.2264 99.4532 54.5915 98.5458C54.564 98.2787 54.5251 98.0129 54.4748 97.749C53.823 94.1871 52.0894 91.2222 48.9598 89.1305C45.9126 87.1038 42.1426 86.3459 38.5054 87.0285C34.6471 87.7429 32.0391 89.6341 29.9007 92.7137L29.6694 92.7543C29.192 93.2939 28.7895 93.6045 28.8341 94.2697C28.8934 94.6879 28.5417 95.4333 28.3683 95.9392C27.6284 98.0967 27.6108 101.229 28.4373 103.381C28.686 104.055 28.7619 104.245 28.8758 104.94C30.2558 106.594 30.6049 107.942 32.7134 109.724C33.5062 110.441 33.3322 109.954 33.8118 110.969C30.55 113.461 27.3045 115.971 24.0752 118.503ZM54.4222 131.578C51.101 132.619 47.4541 134.092 43.9342 135.229C41.876 139.97 35.1961 139.169 35.6064 135.385C35.7458 134.196 36.3936 133.117 37.3945 132.406C38.3901 131.71 39.7167 131.461 40.9216 131.679C42.3837 131.943 43.0727 133.013 43.8093 134.11C46.936 133.422 50.7411 132.096 53.8426 131.104C54.8076 130.943 56.3328 130.386 57.4292 130.213C58.0473 130.115 59.2838 129.992 59.7615 129.875L59.6876 129.654C49.9315 129.814 41.1328 129.687 31.4596 128.029C29.4212 127.681 26.6427 127.412 24.6998 126.932C23.6256 129.692 22.3271 131.576 19.7407 133.268C21.9535 135.445 23.6839 137.917 26.4771 139.627C28.346 138.286 31.0546 138.44 32.4177 140.366C33.2336 141.518 33.3066 142.414 33.4009 143.739C41.4619 147.309 50.0756 148.501 58.4909 145.35C61.5738 144.196 63.9981 142.663 66.9299 141.304C74.0245 138.019 81.3858 138.446 88.4739 141.51C88.6542 141.588 88.8335 141.668 89.0119 141.75C84.4148 136.876 79.0564 132.892 72.3072 131.191C71.4723 130.98 70.6342 130.798 69.8006 130.58C62.6598 129.633 61.1065 130.004 54.4222 131.578ZM5.7141 129.822C7.78963 132.464 10.889 133.282 14.2009 133.089C16.2476 132.825 18.6454 132.287 20.0486 130.729C21.4138 129.212 20.0354 127.318 18.6159 126.422C16.7781 125.263 14.6805 124.93 12.532 125.093C9.17015 125.315 6.66428 126.512 5.7141 129.822ZM14.1216 124.33C16.4852 123.475 17.8 121.075 16.8527 118.768C16.4722 117.846 15.7212 117.108 14.7687 116.723C13.9421 116.39 13.3589 116.408 12.4892 116.477C11.1348 117.029 10.247 117.459 9.65722 118.924C9.21957 120.02 9.28874 121.241 9.84703 122.285C10.3641 123.261 11.2873 123.98 12.3881 124.266C12.9637 124.41 13.5366 124.381 14.1216 124.33Z" fill="#DEFA8E"/>
<path d="M29.6694 92.7543L29.9007 92.7137C32.0391 89.6341 34.6471 87.7429 38.5054 87.0285C42.1426 86.3459 45.9126 87.1038 48.9598 89.1305C52.0894 91.2222 53.823 94.1871 54.4748 97.749C54.5251 98.0129 54.564 98.2787 54.5915 98.5458C54.2264 99.4532 53.9671 99.9982 54.631 100.864C54.2999 103.493 53.2158 105.981 51.4993 108.052C51.1472 108.472 48.9996 110.362 48.983 110.588C48.5362 111.063 47.4209 111.581 46.8145 111.843L46.763 111.969L46.8862 112.01C47.2545 112.135 47.3766 112.143 47.6206 112.438L47.6337 112.597L46.1646 111.94C38.9532 113.958 35.6677 110.675 33.8118 110.969C33.3322 109.954 33.5062 110.441 32.7134 109.724C30.6049 107.942 30.2558 106.594 28.8758 104.94C28.7619 104.245 28.686 104.055 28.4373 103.381C27.6108 101.229 27.6284 98.0967 28.3683 95.9392C28.5417 95.4333 28.8934 94.6879 28.8341 94.2697C28.7895 93.6045 29.192 93.2939 29.6694 92.7543ZM42.3157 110.656C45.4388 110.259 48.178 109.448 49.8223 106.616C48.1933 102.345 44.4833 101.079 40.0657 101.491C36.6147 101.752 33.511 103.366 32.7339 106.849C34.1444 108.908 36.5321 110.038 38.9941 110.519C40.0863 110.737 41.2081 110.784 42.3157 110.656ZM41.686 100.738C47.3433 99.4766 46.7824 91.5809 40.8 91.6386C34.5555 92.9129 36.0152 100.973 41.686 100.738Z" fill="#DEFA8E"/>
<path d="M80.7721 121.835C79.0296 121.783 78.4703 121.549 76.9236 120.22C75.2819 118.808 73.3475 112.504 77.3514 112.646C78.5497 112.688 80.4466 114.425 81.0761 115.419C82.6976 117.639 82.3784 119.255 81.6591 121.682C82.6521 124.313 84.7374 126.628 87.3917 127.817C87.5771 127.9 87.7634 127.981 87.9506 128.061C86.8302 126.014 85.9312 123.41 88.4138 121.726C88.6376 121.574 88.831 121.636 89.1034 121.643C89.4826 121.89 89.6983 122.091 89.7451 122.588C90.028 125.593 88.7819 127.376 91.8684 129.58C93.4222 130.688 95.3751 131.662 97.0144 132.838C98.562 133.947 99.6978 135.216 101.105 136.367C102.13 137.591 103.425 138.906 104.341 140.103C109.801 147.25 113.889 155.638 114.593 164.568C114.708 166.038 114.348 170.721 114.603 171.259C114.983 170.199 115.214 169.44 115.495 168.35C116.38 166.341 117.048 163.267 117.706 161.091C118.004 162.166 118.028 162.452 118.833 163.273C118.561 164.969 118.276 166.663 117.979 168.354C117.454 169.814 117.038 171.417 116.495 172.844C115.735 174.846 114.467 177.126 113.303 178.966C112.655 179.904 110.731 182.848 109.915 183.457C109.783 183.168 109.811 183.244 109.75 182.942L109.051 182.786C109.362 182.449 109.428 182.425 109.58 181.992L109.365 181.892L108.808 182.121C108.425 182.013 108.124 181.853 107.774 182.075C106.382 182.961 105.758 183.977 104.29 184.859C104.6 183.942 105.825 183.123 106.419 182.284C117.833 166.177 104.965 146.259 91.1206 135.911C88.8944 134.259 86.5734 132.728 84.1681 131.326C80.8176 129.394 68.1321 123.407 67.332 120.769L67.4596 120.647C68.0707 121.053 68.4357 122.37 69.9643 123.083L70.1724 123.003L70.4419 122.22C70.8102 121.931 70.7259 122.044 70.9758 121.678C70.1318 121.268 68.1405 120.422 67.7684 119.628C73.4508 122.719 76.9478 124.389 83.225 126.443L84.8882 127.227L83.1227 125.59C82.1742 124.278 81.5371 123.265 80.7721 121.835Z" fill="#DEFA8E"/>
<path d="M115.495 168.35C116.38 166.341 117.048 163.267 117.706 161.091C118.004 162.166 118.028 162.452 118.833 163.273C118.561 164.969 118.276 166.663 117.979 168.354C117.454 169.814 117.038 171.417 116.495 172.844C115.735 174.846 114.467 177.126 113.303 178.966C112.655 179.904 110.731 182.848 109.915 183.457C109.783 183.168 109.811 183.244 109.75 182.942L109.051 182.786C109.362 182.449 109.428 182.425 109.58 181.992L109.365 181.892L108.808 182.121C108.526 181.752 108.681 181.918 108.086 181.743C108.045 181.576 109.172 180.374 109.374 180.153C111.487 177.845 113.758 174.228 114.603 171.259C114.983 170.199 115.214 169.44 115.495 168.35Z" fill="#DEFA8E"/>
<path d="M54.5421 137.001C55.6821 136.928 56.3575 136.895 57.488 137.263C59.221 137.82 60.634 139.045 61.3875 140.646C61.6228 141.148 62.1404 142.684 61.9319 143.216C61.369 143.527 60.9329 143.61 60.3156 143.774C56.969 143.719 54.1726 142.727 52.5979 139.555C51.8529 138.057 53.2118 137.337 54.5421 137.001Z" fill="#DEFA8E"/>
<path d="M59.6876 129.654L59.9739 129.476C60.1558 129.772 60.1033 129.656 60.1645 130.003C61.4857 130.043 62.6981 129.814 63.9046 129.741C64.6317 129.696 69.6484 130.161 69.9994 130.452L69.8006 130.58C62.6598 129.633 61.1065 130.004 54.4222 131.578C51.101 132.619 47.4541 134.092 43.9342 135.229C41.876 139.97 35.1961 139.169 35.6064 135.385C35.7458 134.196 36.3936 133.117 37.3945 132.406C38.3901 131.71 39.7167 131.461 40.9216 131.679C42.3837 131.943 43.0727 133.013 43.8093 134.11C46.936 133.422 50.7411 132.096 53.8426 131.104C54.8076 130.943 56.3328 130.386 57.4292 130.213C58.0473 130.115 59.2838 129.992 59.7615 129.875L59.6876 129.654Z" fill="#DEFA8E"/>
<path d="M139.279 33.0265C142.89 32.6905 146.836 32.9069 150.475 32.5326C152.351 32.3395 151.68 32.6867 152.952 32.9016C153.283 32.2301 153.147 31.3098 153.405 30.4124C154.401 26.8949 157.115 24.0627 160.683 22.8208C163.562 21.8146 167.149 21.9126 169.926 23.1944C172.78 24.5133 174.958 26.8865 175.961 29.7728C177.856 35.1083 175.29 40.457 170.784 43.7234C171.388 48.2045 171.945 53.3214 172.162 57.8395C174.759 58.3361 176.316 58.6555 178.634 60.0132C179.422 58.9831 182.194 55.0693 183.004 54.6083C183.433 54.622 183.41 54.6478 183.766 54.8938C184.179 56.0585 180.881 59.8427 179.919 60.8153C181.943 62.7352 183.203 64.3926 184.183 67.0184C184.429 67.6811 184.651 68.9637 184.943 69.4677C187.125 68.7489 191.123 68.3673 193.737 67.6073C193.97 65.7918 194.337 65.1704 195.719 63.8927C194.657 61.9922 193.777 60.4539 192.379 58.7222C191.512 57.6495 190.051 56.2798 189.317 55.2307C189.824 54.943 190.269 54.6739 190.811 54.4457C193.677 56.9797 195.34 59.9493 197.245 63.1403C200.268 63.3484 202.678 64.5652 202.444 68.0581C202.359 69.3294 201.332 70.4514 200.34 71.2487C201.199 74.0338 202.311 78.0352 203.381 80.6361C204.634 80.7613 205.662 80.8464 206.871 81.219C215.971 84.0242 217.794 95.6424 210.488 101.294C209.498 102.06 208.718 102.374 207.63 102.952C207.037 103.234 206.806 103.357 206.178 103.529C203.037 103.757 201.046 103.929 198.127 102.59C192.072 99.8094 189.788 92.4978 192.793 86.8259C189.807 84.8514 186.009 83.0733 182.835 81.1445C182.291 80.9193 181.956 80.7616 181.441 80.4831C178.561 82.8449 175.88 84.8418 171.787 84.8885C171.284 84.8639 170.708 84.7768 170.275 84.9782L170.135 85.2522C170.012 84.7686 168.796 84.6107 168.259 84.5439C167.278 84.4218 166.017 83.7899 165.209 84.1958C164.624 83.2329 164.26 83.2271 163.179 82.807C160.651 80.584 160.065 80.1035 158.196 77.3168C155.619 78.4553 153.109 79.9556 150.615 81.2645C149.788 81.6987 148.046 82.736 147.214 83.0322C149.256 85.8357 149.424 87.2618 149.617 90.5077L149.77 90.4518C150.134 91.3045 150.076 91.6225 149.821 92.5193L149.639 92.4605C148.671 94.6825 148.405 95.938 146.802 97.9324C143.999 101.423 137.056 103.323 132.891 101.238C132.091 100.869 131.485 100.558 130.714 100.137C129.883 99.5614 129.114 99.038 128.391 98.3386C126.07 96.077 124.785 93.0202 124.817 89.8449C124.829 86.7507 126.136 83.7912 128.443 81.6327C131.591 78.6944 134.51 78.3216 138.638 78.361L138.765 78.1613C138.596 76.0755 137.945 73.6314 137.457 71.58C136.683 68.293 135.874 65.0142 135.028 61.7442C133.286 61.4479 131.698 61.0464 130.224 60.0565C125.457 56.8487 123.855 50.1167 127.387 45.4817C130.036 42.0066 135.045 40.3859 139.362 41.6307C140.786 42.0413 141.769 42.7099 142.952 43.5534C144.549 45.1264 145.081 45.7188 145.967 47.7552C146.507 49.585 146.727 51.0527 146.58 52.9776L151.206 53.9103C152.832 51.967 154.011 51.462 156.568 51.6865C157.627 49.2515 158.69 46.471 159.835 44.1169C155.787 42.2031 153.095 38.3056 152.948 33.9615C150.877 33.9187 148.416 34.1246 146.322 34.2372C143.55 34.3932 140.774 34.4937 137.999 34.5385C139.318 33.7335 151.437 34.2133 152.461 33.4618C152.655 33.3188 152.611 33.2501 152.644 33.036C152.551 32.973 152.458 32.91 152.364 32.847C148.562 32.8262 143.184 33.1417 139.513 33.1928L139.279 33.0265ZM157.966 52.2206C158.846 53.1964 159.541 54.1584 159.771 55.4612C160.203 57.9148 158.267 59.9601 155.768 60.2184C154.537 60.3498 153.303 59.9823 152.364 59.2043C151.143 58.1855 150.825 56.9941 150.691 55.5347C149.28 55.149 147.653 54.8359 146.208 54.5263C144.68 58.9295 141.421 61.3302 136.633 61.8587C137.419 66.7304 139.577 72.5318 140.33 77.5575C139.662 77.6603 139.355 77.8159 138.765 78.1613L138.638 78.361C134.51 78.3216 131.591 78.6944 128.443 81.6327C126.136 83.7912 124.829 86.7507 124.817 89.8449C124.785 93.0202 126.07 96.077 128.391 98.3386C129.114 99.038 129.883 99.5614 130.714 100.137C131.485 100.558 132.091 100.869 132.891 101.238C137.056 103.323 143.999 101.423 146.802 97.9324C148.405 95.938 148.671 94.6825 149.639 92.4605L149.821 92.5193C150.076 91.6225 150.134 91.3045 149.77 90.4518L149.617 90.5077C149.424 87.2618 149.256 85.8357 147.214 83.0322L146.233 81.8174C146.755 81.3609 148.962 80.2213 149.669 79.8416L157.699 75.5975C157.356 74.6525 157.125 73.674 157.008 72.68C156.598 69.2137 157.639 65.7329 159.902 63.0049C162.732 59.6454 166.069 58.2511 170.45 57.7996C170.338 53.1813 169.989 48.9913 169.145 44.4494C166.43 45.1875 164.011 45.4322 161.309 44.638C160.139 47.0902 159.041 49.7225 157.966 52.2206ZM144.897 71.5546C144.279 70.615 143.92 69.6641 144.183 68.5344C144.379 67.6894 144.926 66.9585 145.699 66.513C146.534 66.0317 147.533 65.8876 148.478 66.1121C149.339 66.3257 150.071 66.8653 150.51 67.6075C150.792 68.0916 150.974 68.7916 151.091 69.3361C150.357 71.9488 149.171 72.7554 146.325 72.5415C145.035 74.1678 143.955 75.9032 142.775 77.3996C142.865 76.8403 143.269 76.3843 142.833 75.889C142.266 75.9311 141.96 76.266 141.443 76.5336C142.687 74.8741 143.85 73.3366 144.897 71.5546ZM182.458 79.0596L183.488 79.7285C184.443 81.3663 189.503 82.4126 190.36 84.4635L190.322 84.6306C189.146 84.9124 184.054 81.0165 182.835 81.1445C186.009 83.0733 189.807 84.8514 192.793 86.8259C189.788 92.4978 192.072 99.8094 198.127 102.59C201.046 103.929 203.037 103.757 206.178 103.529C206.806 103.357 207.037 103.234 207.63 102.952C208.718 102.374 209.498 102.06 210.488 101.294C217.794 95.6424 215.971 84.0242 206.871 81.219C205.662 80.8464 204.634 80.7613 203.381 80.6361C202.311 78.0352 201.199 74.0338 200.34 71.2487C201.332 70.4514 202.359 69.3294 202.444 68.0581C202.678 64.5652 200.268 63.3484 197.245 63.1403C195.34 59.9493 193.677 56.9797 190.811 54.4457C190.269 54.6739 189.824 54.943 189.317 55.2307C190.051 56.2798 191.512 57.6495 192.379 58.7222C193.777 60.4539 194.657 61.9922 195.719 63.8927C194.337 65.1704 193.97 65.7918 193.737 67.6073C191.123 68.3673 187.125 68.7489 184.943 69.4677C186.537 69.7955 189.452 68.1973 190.694 69.1065L190.671 69.3556C189.38 70.0216 185.484 70.3121 185.012 71.0595C184.894 74.038 184.054 76.5247 182.458 79.0596ZM170.485 73.2604C167.912 73.395 165.185 74.1124 163.457 76.0177C159.04 80.8915 168.212 82.9857 171.573 82.8457C174.303 82.6057 177.074 81.9333 178.982 79.9295C180.621 78.2083 179.046 76.0387 177.471 74.9586C175.519 73.6191 172.824 73.1145 170.485 73.2604ZM165.897 43.2309C176.981 41.7081 171.387 34.0382 163.578 35.178C160.247 35.5547 158.115 36.6149 157.144 39.8709C159.073 42.4462 162.667 43.6863 165.897 43.2309ZM165.082 34.4764C166.425 34.1421 167.333 33.7081 168.07 32.4959C168.686 31.4874 168.84 30.2788 168.496 29.1574C168.187 28.1378 167.439 27.2937 166.44 26.8391C165.941 26.6154 165.374 26.5173 164.829 26.4693C162.275 26.7578 160.639 28.4686 160.938 30.9944C161.053 32.0534 161.619 33.0192 162.502 33.6622C163.29 34.2349 164.122 34.4299 165.082 34.4764ZM170.495 62.9744C163.986 64.2968 165.785 73.0607 171.669 72.434C173.185 71.9649 174.174 71.4796 174.984 70.025C175.651 68.8281 175.796 67.426 175.388 66.1262C174.674 63.8986 172.814 62.955 170.495 62.9744ZM137.616 59.9114C147.539 57.9405 140.82 51.6935 134.67 52.87C125.566 54.6381 129.556 60.8135 137.616 59.9114ZM135.443 45.0001C134.269 45.371 133.547 45.7552 132.957 46.8727C132.492 47.7609 132.415 48.7895 132.738 49.7332C133.067 50.6744 133.786 51.4431 134.725 51.8574C135.48 52.1918 135.929 52.1686 136.752 52.1541C138.989 51.2455 140.343 49.138 139.265 46.8758C138.884 46.0762 138.179 45.4616 137.313 45.1756C136.671 44.9567 136.108 44.9504 135.443 45.0001Z" fill="#DEFA8E"/>
<path d="M144.897 71.5546C144.279 70.615 143.92 69.6641 144.183 68.5344C144.379 67.6894 144.926 66.9585 145.699 66.513C146.534 66.0317 147.533 65.8876 148.478 66.1121C149.339 66.3257 150.071 66.8653 150.51 67.6075C150.792 68.0916 150.974 68.7916 151.091 69.3361C150.357 71.9488 149.171 72.7554 146.325 72.5415C145.035 74.1678 143.955 75.9032 142.775 77.3996C142.865 76.8403 143.269 76.3843 142.833 75.889C142.266 75.9311 141.96 76.266 141.443 76.5336C142.687 74.8741 143.85 73.3366 144.897 71.5546Z" fill="#DEFA8E"/>
<path d="M189.317 55.2307C189.824 54.943 190.269 54.6739 190.811 54.4457C193.677 56.9797 195.34 59.9493 197.245 63.1403C200.268 63.3484 202.678 64.5652 202.444 68.0581C202.359 69.3294 201.332 70.4514 200.34 71.2487C201.199 74.0338 202.311 78.0352 203.381 80.6361C204.634 80.7613 205.662 80.8464 206.871 81.219C215.971 84.0242 217.794 95.6424 210.488 101.294C209.498 102.06 208.718 102.374 207.63 102.952C207.037 103.234 206.806 103.357 206.178 103.529C203.037 103.757 201.046 103.929 198.127 102.59C192.072 99.8094 189.788 92.4978 192.793 86.8259C189.807 84.8514 186.009 83.0733 182.835 81.1445C184.054 81.0165 189.146 84.9124 190.322 84.6306L190.36 84.4635C189.503 82.4126 184.443 81.3663 183.488 79.7285C186.951 81.4766 190.158 83.4981 193.704 85.1676C196.232 82.4536 197.988 81.5829 201.584 80.7204C200.597 77.722 199.665 74.7072 198.788 71.6775C196.576 71.661 195.268 70.9332 194.066 69.1652C192.566 69.4211 185.897 71.0692 185.012 71.0595C185.484 70.3121 189.38 70.0216 190.671 69.3556L190.694 69.1065C189.452 68.1973 186.537 69.7955 184.943 69.4677C187.125 68.7489 191.123 68.3673 193.737 67.6073C193.97 65.7918 194.337 65.1704 195.719 63.8927C194.657 61.9922 193.777 60.4539 192.379 58.7222C191.512 57.6495 190.051 56.2798 189.317 55.2307ZM203.651 101.799C206.522 101.446 209.284 100.739 210.884 98.1829C209.487 94.5819 206.671 93.5743 202.919 93.6274C200.913 93.7244 197.962 94.4939 196.744 96.0073C193.221 100.38 200.962 101.759 203.651 101.799ZM204.045 92.7322C206.216 92.3068 207.62 90.2752 207.187 88.1877C206.753 86.1 204.644 84.7424 202.468 85.1506C200.282 85.5614 198.858 87.6017 199.295 89.7013C199.731 91.8008 201.86 93.1599 204.045 92.7322Z" fill="#DEFA8E"/>
<path d="M141.443 76.5336C141.96 76.266 142.266 75.9311 142.833 75.889C143.269 76.3843 142.865 76.8403 142.775 77.3996C142.45 78.0011 142.123 78.5764 141.857 79.2043C143.379 79.7303 145.073 80.7425 146.233 81.8174L147.214 83.0322C149.256 85.8357 149.424 87.2618 149.617 90.5077L149.77 90.4518C150.134 91.3045 150.076 91.6225 149.821 92.5193L149.639 92.4605C148.671 94.6825 148.405 95.938 146.802 97.9324C143.999 101.423 137.056 103.323 132.891 101.238C132.091 100.869 131.485 100.558 130.714 100.137C129.883 99.5614 129.114 99.038 128.391 98.3386C126.07 96.077 124.785 93.0202 124.817 89.8449C124.829 86.7507 126.136 83.7912 128.443 81.6327C131.591 78.6944 134.51 78.3216 138.638 78.361L138.765 78.1613C139.355 77.8159 139.662 77.6603 140.33 77.5575C140.627 77.4413 141.133 76.8282 141.443 76.5336ZM129.404 96.7536C131.485 99.572 135.317 100.262 138.699 100.022C149.848 98.0768 144.432 91.1854 136.306 91.7933C132.897 92.2123 130.131 93.1705 129.404 96.7536ZM138.173 90.9346C143.646 88.7347 141.729 81.8249 136.511 82.6284C135.218 83.0285 134.355 83.5276 133.704 84.738C133.134 85.8239 133.052 87.0869 133.478 88.2325C134.202 90.1599 136.067 91.2367 138.173 90.9346Z" fill="#DEFA8E"/>
<path d="M31.974 44.2626C31.1233 42.9611 30.5503 41.5099 30.2886 39.9937C29.8327 37.076 30.5922 34.1033 32.4026 31.72C34.1958 29.3732 36.8796 27.7999 39.8722 27.3417C46.7544 26.3146 52.0922 30.8989 53.0302 37.3227C52.9597 37.9679 52.8243 38.2032 53.0731 38.7379C53.3304 38.7968 53.4076 38.8183 53.6713 38.8471L53.2158 38.96C52.8417 39.5735 52.6079 41.2671 52.337 42.0647C52.1052 42.747 51.9129 43.1559 51.6036 43.8135C51.1423 44.2368 51.0342 44.4007 50.8934 45.0322C49.8201 46.0814 48.7859 47.1137 47.6412 48.0941C50.3603 52.1287 52.8875 56.8221 55.8258 60.8496C58.1984 60.5851 59.1833 61.2451 60.6081 62.9781C62.7058 62.9524 65.5819 62.9674 67.6481 62.7532C67.6816 61.3929 67.6581 60.2978 67.9572 58.9587L68.2332 58.9912C68.1481 59.9854 67.9383 61.9989 67.7491 62.8873C66.8359 63.2021 61.7676 63.2444 60.5263 63.1812C60.4401 63.1767 59.9185 62.7134 59.7918 62.5973C59.5211 63.1015 59.7916 63.4213 59.7714 64.1853C59.9384 64.457 59.9759 64.6354 60.2177 64.7467C60.3812 64.4507 60.3311 64.4278 60.7251 64.3362C61.9044 64.061 63.1539 64.1478 64.3612 64.0871C65.4068 64.0346 66.7428 63.5707 67.7004 64.0968C67.8949 64.2036 68.8841 66.2823 68.9531 66.5116C69.8157 69.3754 72.5848 72.0045 75.2417 73.4533C76.8863 74.2894 79.5432 74.9642 81.4459 74.9833C82.3955 74.9928 83.1717 74.8084 84.1141 75.0593C75.712 76.1259 70.1633 71.8135 67.8141 64.2772C65.5985 64.2112 62.8965 64.4011 60.6433 64.5137C60.1635 65.8442 59.8731 66.3409 58.8222 67.3831C59.4991 70.2648 60.4371 72.8897 61.3841 75.7016C66.5111 76.3703 69.6733 79.6523 69.0836 84.8105C68.8662 86.7122 67.9352 87.2445 67.3055 88.7003C66.9342 89.2821 66.8712 89.3846 66.3394 89.8305C65.8142 90.1286 64.9837 90.6575 64.4586 90.8382C59.1528 92.8316 53.7695 89.8062 53.0192 84.3361C52.9135 83.5656 53.5106 82.2451 53.2439 81.4799L52.6478 81.2807C50.8393 81.4343 48.6471 81.179 46.7596 81.2943C39.726 81.724 32.3798 81.5495 25.383 81.9141C25.1708 84.4905 24.6946 85.7908 23.4644 88.0957C25.505 90.0099 27.8731 91.1603 29.6694 92.7543C29.192 93.2939 28.7895 93.6045 28.8341 94.2697C27.8736 93.7226 23.0702 90.3236 22.3023 89.6434C21.1239 90.8133 19.7454 91.7808 18.2269 92.5034C15.2038 93.9199 11.6834 94.0293 8.51515 93.0009C8.05293 92.7313 7.38906 92.4703 6.88283 92.2217C-2.55751 87.589 -2.20905 74.4821 7.44974 70.3176C9.27727 69.5297 10.5554 69.3534 12.5698 69.1668C13.6544 67.259 14.2266 65.6795 14.9371 63.6428C15.2987 62.6059 15.9858 60.4474 16.5323 59.611C15.0643 58.0736 14.0836 56.3353 15.1209 54.2494C15.6166 53.2402 16.5326 52.4788 17.6434 52.1526C18.8887 51.7748 20.0506 51.9115 21.1906 52.468C23.0773 50.7899 25.362 48.7673 27.5305 47.4493C28.8455 46.3655 30.5505 45.2416 31.974 44.2626ZM31.1777 46.5695C31.4798 45.9161 31.5703 45.9832 30.9968 45.3787C29.7884 46.055 28.5881 47.2491 27.5305 47.4493C25.362 48.7673 23.0773 50.7899 21.1906 52.468C20.0506 51.9115 18.8887 51.7748 17.6434 52.1526C16.5326 52.4788 15.6166 53.2402 15.1209 54.2494C14.0836 56.3353 15.0643 58.0736 16.5323 59.611C15.9858 60.4474 15.2987 62.6059 14.9371 63.6428C14.2266 65.6795 13.6544 67.259 12.5698 69.1668C10.5554 69.3534 9.27727 69.5297 7.44974 70.3176C-2.20905 74.4821 -2.55751 87.589 6.88283 92.2217C7.38906 92.4703 8.05293 92.7313 8.51515 93.0009C11.6834 94.0293 15.2038 93.9199 18.2269 92.5034C19.7454 91.7808 21.1239 90.8133 22.3023 89.6434C23.0702 90.3236 27.8736 93.7226 28.8341 94.2697C28.7895 93.6045 29.192 93.2939 29.6694 92.7543C27.8731 91.1603 25.505 90.0099 23.4644 88.0957C24.6946 85.7908 25.1708 84.4905 25.383 81.9141C32.3798 81.5495 39.726 81.724 46.7596 81.2943C48.6471 81.179 50.8393 81.4343 52.6478 81.2807C53.2592 81.193 53.0105 81.1243 53.4623 81.337C53.6856 81.8143 53.3784 82.5284 53.4233 83.3358C53.5498 82.6487 54.1477 82.4187 54.299 81.75C54.3808 81.3891 53.7599 80.197 53.9273 79.6483C54.0417 79.2736 54.0868 79.3495 54.324 79.1222L54.4318 79.118C56.2054 77.0629 57.015 76.5258 59.6224 75.947L59.7556 75.7853C59.2568 73.5326 58.0469 70.0329 57.3294 67.7174C55.425 67.4648 54.5264 66.7933 53.5338 65.2193L47.2781 65.4237C46.6997 65.4446 45.6063 65.5879 45.1852 65.5157C44.9632 65.1128 45.0867 64.9346 45.1419 64.3836C45.6047 63.9685 52.1996 63.7875 53.451 63.6358C53.7267 62.8068 54.0841 62.1867 54.4948 61.4142C52.7402 58.8252 51.0168 56.2167 49.3251 53.5893C48.3299 52.0634 47.0225 50.2266 46.1999 48.6578C42.205 49.9173 38.0118 49.6031 34.5963 47.1058C33.8901 46.5895 33.3266 46.1708 32.8044 45.4661C32.2628 45.8895 31.8127 46.3007 31.1777 46.5695ZM34.3673 44.5117C36.3532 47.2033 39.6296 47.9689 42.8917 47.7339C45.2354 47.334 47.4324 46.5622 48.8482 44.5953L49.0255 44.3449C47.5191 40.4629 44.4595 39.6305 40.4674 39.9546C37.4616 40.313 35.0645 41.4429 34.3673 44.5117ZM63.7037 82.3034C64.0365 80.2601 63.1607 79.5075 61.3458 78.8036C59.605 79.1292 58.1898 79.9989 58.5331 81.9277C58.6776 82.711 59.1372 83.4082 59.8125 83.8686C61.5387 85.0274 63.0113 83.929 63.7037 82.3034ZM56.0262 87.6255C58.0241 90.418 60.5573 89.9318 63.4732 89.7947C65.8807 88.6198 66.9967 88.1916 65.2053 85.8404L65.014 85.7564C64.6459 85.5933 64.029 85.171 63.7141 85.0914C60.6907 84.3266 57.4271 84.556 56.0262 87.6255ZM42.4062 39.203C44.8622 38.3017 46.1395 35.9532 44.9613 33.6019C44.5298 32.7193 43.7317 32.052 42.7624 31.7632C42.1387 31.5767 41.5265 31.5627 40.8841 31.6209C38.5141 32.4688 37.2886 34.5228 38.218 36.8754C38.5789 37.811 39.3242 38.563 40.2793 38.9551C40.965 39.2355 41.6715 39.2654 42.4062 39.203Z" fill="#DEFA8E"/>
<path d="M38.6338 49.3362C39.0703 49.4156 39.2455 49.415 39.6137 49.6628C39.8851 50.3322 38.7087 55.9746 38.5108 57.2835C41.853 58.3614 44.7773 60.8518 44.7829 64.3576C44.7908 69.2825 41.4664 72.4442 36.4622 72.4975C28.7161 71.8571 26.575 61.6772 33.347 58.1358C34.4901 57.538 35.5789 57.4035 36.8387 57.1882C37.5162 55.1663 37.8332 51.053 38.6338 49.3362ZM31.9884 68.721C33.6977 70.9985 36.0282 71.242 38.7392 70.8434C41.6532 70.0782 43.4474 68.3486 39.8849 66.5426C38.4927 65.8368 36.6718 65.8847 35.1364 66.0723C33.44 66.7439 32.7984 67.0343 31.9884 68.721ZM37.6357 65.4817C40.6955 64.1894 39.9596 60.0526 36.2459 60.2725C35.3396 60.827 34.7211 61.174 34.4345 62.2718C34.2427 62.98 34.3765 63.7334 34.802 64.3404C35.5666 65.4089 36.4064 65.4845 37.6357 65.4817Z" fill="#DEFA8E"/>
<path d="M30.9968 45.3787C31.5703 45.9832 31.4798 45.9161 31.1777 46.5695C28.3401 49.0443 25.2184 50.6439 22.6155 53.6702C23.2414 55.285 23.1623 55.7069 23.1012 57.4372C25.2043 58.5502 27.9418 59.6645 29.8651 60.8403L29.4789 62.3175C27.5985 61.4672 23.7675 59.8259 22.072 58.8699C20.9252 60.0233 19.7188 60.2216 18.1007 60.0914C16.8566 62.7955 15.8095 66.9614 14.4892 69.2481C17.2344 69.5152 20.503 71.2307 22.3728 73.1643C23.3376 72.5499 29.3111 68.6477 29.9808 68.6765C30.4725 69.0512 30.5321 69.1879 30.8915 69.7008C28.552 71.2196 25.6478 72.9337 23.4701 74.5489C24.5005 76.5742 24.9736 77.9793 25.4019 80.2225C34.4275 80.3842 43.5858 79.6121 52.4735 79.6706C51.34 78.73 42.6118 71.3563 42.4158 70.9062C42.5991 70.539 42.6043 70.5302 42.8735 70.2159C43.2835 70.0246 43.1399 69.9882 43.4817 70.0697C43.9515 70.1818 45.5661 71.6366 45.7992 71.9593C47.5719 73.3804 52.951 77.6998 54.324 79.1222C54.0868 79.3495 54.0417 79.2736 53.9273 79.6483C53.7599 80.197 54.3808 81.3891 54.299 81.75C54.1477 82.4187 53.5498 82.6487 53.4233 83.3358C53.3784 82.5284 53.6856 81.8143 53.4623 81.337C53.0105 81.1243 53.2592 81.193 52.6478 81.2807C50.8393 81.4343 48.6471 81.179 46.7596 81.2943C39.726 81.724 32.3798 81.5495 25.383 81.9141C25.1708 84.4905 24.6946 85.7908 23.4644 88.0957C25.505 90.0099 27.8731 91.1603 29.6694 92.7543C29.192 93.2939 28.7895 93.6045 28.8341 94.2697C27.8736 93.7226 23.0702 90.3236 22.3023 89.6434C21.1239 90.8133 19.7454 91.7808 18.2269 92.5034C15.2038 93.9199 11.6834 94.0293 8.51515 93.0009C8.05293 92.7313 7.38906 92.4703 6.88283 92.2217C-2.55751 87.589 -2.20905 74.4821 7.44974 70.3176C9.27727 69.5297 10.5554 69.3534 12.5698 69.1668C13.6544 67.259 14.2266 65.6795 14.9371 63.6428C15.2987 62.6059 15.9858 60.4474 16.5323 59.611C15.0643 58.0736 14.0836 56.3353 15.1209 54.2494C15.6166 53.2402 16.5326 52.4788 17.6434 52.1526C18.8887 51.7748 20.0506 51.9115 21.1906 52.468C23.0773 50.7899 25.362 48.7673 27.5305 47.4493C28.5881 47.2491 29.7884 46.055 30.9968 45.3787ZM14.0181 91.7018C17.0139 91.1911 19.1529 90.5947 20.9338 88.0036C19.5596 83.7331 15.6322 82.7777 11.4413 83.0698C8.17619 83.6977 5.43753 84.6356 4.81666 88.1896C6.64945 91.0012 10.7482 92.0526 14.0181 91.7018ZM13.295 82.3407C14.6462 82.0103 15.5335 81.5151 16.2622 80.2988C16.9098 79.2309 17.0812 77.957 16.7374 76.766C16.1367 74.7294 14.4266 73.7406 12.2847 73.7758C10.9543 74.1074 10.0119 74.487 9.25563 75.6775C8.5846 76.7459 8.39743 78.0313 8.73755 79.2355C9.05589 80.4081 9.87329 81.3978 10.9896 81.962C11.7905 82.3677 12.4145 82.3869 13.295 82.3407Z" fill="#DEFA8E"/>
<path d="M42.8735 70.2159C43.2835 70.0246 43.1399 69.9882 43.4817 70.0697C43.9515 70.1818 45.5661 71.6366 45.7992 71.9593L45.5363 72.0166C44.7444 71.321 43.8501 71.5875 43.2938 70.3347L42.8735 70.2159Z" fill="#DEFA8E"/>
<path d="M54.324 79.1222L54.4318 79.118C56.2054 77.0629 57.015 76.5258 59.6224 75.947C59.0692 76.7455 59.031 76.8518 59.247 77.8131C59.5561 79.1886 60.6743 78.4537 61.3334 78.6879L61.3458 78.8036C59.605 79.1292 58.1898 79.9989 58.5331 81.9277C58.6776 82.711 59.1372 83.4082 59.8125 83.8686C61.5387 85.0274 63.0113 83.929 63.7037 82.3034C63.7203 82.7018 63.7325 83.1004 63.7404 83.4991C64.2517 83.6715 64.4939 83.6573 64.795 83.9945C64.9731 84.9642 64.8387 85.1442 65.4324 85.8113L65.2053 85.8404L65.014 85.7564C64.6459 85.5933 64.029 85.171 63.7141 85.0914C60.6907 84.3266 57.4271 84.556 56.0262 87.6255C58.0241 90.418 60.5573 89.9318 63.4732 89.7947C64.0283 89.7747 64.4591 89.6043 64.9451 89.8C65.0351 90.3279 64.8109 90.4626 64.4586 90.8382C59.1528 92.8316 53.7695 89.8062 53.0192 84.3361C52.9135 83.5656 53.5106 82.2451 53.2439 81.4799L52.6478 81.2807C53.2592 81.193 53.0105 81.1243 53.4623 81.337C53.6856 81.8143 53.3784 82.5284 53.4233 83.3358C53.5498 82.6487 54.1477 82.4187 54.299 81.75C54.3808 81.3891 53.7599 80.197 53.9273 79.6483C54.0417 79.2736 54.0868 79.3495 54.324 79.1222Z" fill="#DEFA8E"/>
<path d="M117.979 168.354C118.746 167.337 118.661 165.214 119.091 163.935C119.157 164.416 119.601 168.216 119.73 168.406L119.911 168.448C120.138 170.654 120.369 173.722 120.892 175.787C121.148 177.547 121.786 179.281 122.157 181.002C122.803 182.494 123.388 184.148 124.019 185.635C129.43 198.418 141.857 203.622 155.072 206.069C156.203 206.278 164.228 207.572 164.9 207.912C168.914 208.557 181.607 211.645 185.034 213.593C185.664 213.64 187.641 214.577 188.235 214.978C182.847 213.197 174.648 212.655 168.923 212.276C165.636 211.402 164.776 213.262 160.876 210.736C161.669 210.75 162.099 210.732 162.887 210.653C159.546 210.331 156.119 210.496 152.848 210.295C148.473 210.47 143.693 209.643 139.222 209.507C139.439 209.553 139.64 209.598 139.856 209.653C139.653 209.804 139.719 209.81 139.508 209.807C137.992 209.788 135.136 210.504 133.835 210.566C127.126 212.378 121.047 215.148 114.04 215.859C112.968 215.967 111.564 216.147 110.509 216.338C110.137 216.387 109.587 216.528 109.308 216.413L109.707 215.91C109.187 216.018 109.054 216.15 108.624 216.441C107.469 216.837 107.043 217.452 106.116 217.836C103.018 219.116 100.212 218.03 97.5424 216.469C97.0929 216.227 96.725 215.952 96.232 215.97L96.08 216.192C91.3404 216.621 77.0471 213.152 72.4052 211.683C73.263 211.4 75.163 211.503 75.273 210.586C74.9893 210.053 74.6395 209.925 74.0899 209.587L72.8367 209.536C70.6292 209.351 68.2316 209.429 65.8974 209.212C66.3756 209.16 66.6926 209.095 67.1643 208.997C66.9024 208.438 66.1883 207.633 65.7163 207.211C65.1242 207.31 64.9195 207.364 64.3368 207.245C65.0699 207.01 65.8926 206.892 66.646 206.649C70.5274 205.402 74.4828 204.42 78.431 203.393C79.4229 203.136 80.5279 202.905 81.455 202.491C80.5215 202.521 76.5917 203.554 75.6621 203.897C75.0294 203.606 73.649 201.776 73.7114 201.106C74.6316 200.582 77.2375 200.389 78.5163 199.91L78.5186 199.732L74.9544 200.444C75.3552 199.135 76.0478 199.004 77.2217 198.063C78.3412 197.699 79.5335 197.334 80.6231 196.91C82.2846 196.46 85.7266 195.02 87.3705 194.373C87.0457 194.78 86.6671 195.196 86.4816 195.666C87.2134 195.31 87.4403 194.992 88.2208 194.909C88.717 195.121 88.4862 194.974 88.8476 195.492C88.8688 195.963 88.8303 196.098 88.7449 196.546C90.152 196.346 98.0677 192.163 100.042 191.521C101.829 190.941 109.232 185.022 109.661 183.464C109.532 182.95 109.645 183.137 109.051 182.786L109.75 182.942C109.811 183.244 109.783 183.168 109.915 183.457C110.731 182.848 112.655 179.904 113.303 178.966C114.467 177.126 115.735 174.846 116.495 172.844C117.038 171.417 117.454 169.814 117.979 168.354ZM105.767 199.774C103.535 201.734 100.044 203.611 97.3594 204.999C96.5813 205.4 94.255 206.267 93.7474 206.676C94.4966 207.405 95.247 208.216 96.1733 208.723C96.9192 208.644 97.6635 208.586 98.396 208.435C99.8547 207.921 102.269 206.519 103.668 205.715C103.753 205.594 106.275 203.915 106.698 203.604C110.931 200.481 117.041 194.302 118.613 189.341C118.469 188.788 118.225 188.284 117.684 188.014C117.033 187.985 117.225 188.002 116.562 188.354C113.854 192.161 109.776 197.132 105.767 199.774Z" fill="#DEFA8E"/>
<path d="M117.979 168.354C118.746 167.337 118.661 165.214 119.091 163.935C119.157 164.416 119.601 168.216 119.73 168.406L119.911 168.448C120.138 170.654 120.369 173.722 120.892 175.787C121.148 177.547 121.786 179.281 122.157 181.002L121.774 180.548C121.631 180.857 121.552 181.079 121.322 181.339C121.236 180.795 121.3 180.41 120.804 180.132C120.692 182.437 119.93 187.544 118.659 189.443L118.613 189.341C118.469 188.788 118.225 188.284 117.684 188.014C117.033 187.985 117.225 188.002 116.562 188.354C113.854 192.161 109.776 197.132 105.767 199.774C103.535 201.734 100.044 203.611 97.3594 204.999C96.5813 205.4 94.255 206.267 93.7474 206.676L93.6038 206.561C88.4413 208.366 85.0007 209.019 79.5052 209.368C78.385 209.439 74.9153 209.445 74.0899 209.587L72.8367 209.536C70.6292 209.351 68.2316 209.429 65.8974 209.212C66.3756 209.16 66.6926 209.095 67.1643 208.997C66.9024 208.438 66.1883 207.633 65.7163 207.211C65.1242 207.31 64.9195 207.364 64.3368 207.245C65.0699 207.01 65.8926 206.892 66.646 206.649C70.5274 205.402 74.4828 204.42 78.431 203.393C79.4229 203.136 80.5279 202.905 81.455 202.491C80.5215 202.521 76.5917 203.554 75.6621 203.897C75.0294 203.606 73.649 201.776 73.7114 201.106C74.6316 200.582 77.2375 200.389 78.5163 199.91L78.5186 199.732L74.9544 200.444C75.3552 199.135 76.0478 199.004 77.2217 198.063C78.3412 197.699 79.5335 197.334 80.6231 196.91C82.2846 196.46 85.7266 195.02 87.3705 194.373C87.0457 194.78 86.6671 195.196 86.4816 195.666C87.2134 195.31 87.4403 194.992 88.2208 194.909C88.717 195.121 88.4862 194.974 88.8476 195.492C88.8688 195.963 88.8303 196.098 88.7449 196.546C90.152 196.346 98.0677 192.163 100.042 191.521C101.829 190.941 109.232 185.022 109.661 183.464C109.532 182.95 109.645 183.137 109.051 182.786L109.75 182.942C109.811 183.244 109.783 183.168 109.915 183.457C110.731 182.848 112.655 179.904 113.303 178.966C114.467 177.126 115.735 174.846 116.495 172.844C117.038 171.417 117.454 169.814 117.979 168.354Z" fill="#DEFA8E"/>
<path d="M81.455 202.491C82.77 201.942 84.7347 201.524 86.1753 201.14C90.9395 199.863 95.4837 198.067 100.115 196.422C101.197 196.037 102.089 195.433 103.344 195.027C102.653 195.526 100.041 196.748 99.1424 197.172C99.2773 197.931 100.303 199.228 100.559 199.983C100.749 200.542 100.277 201.585 100.625 202.221C102.206 202.835 104.664 199.679 105.767 199.774C103.535 201.734 100.044 203.611 97.3594 204.999C96.5813 205.4 94.255 206.267 93.7474 206.676L93.6038 206.561C88.4413 208.366 85.0007 209.019 79.5052 209.368C78.385 209.439 74.9153 209.445 74.0899 209.587L72.8367 209.536C70.6292 209.351 68.2316 209.429 65.8974 209.212C66.3756 209.16 66.6926 209.095 67.1643 208.997C66.9024 208.438 66.1883 207.633 65.7163 207.211C65.1242 207.31 64.9195 207.364 64.3368 207.245C65.0699 207.01 65.8926 206.892 66.646 206.649C70.5274 205.402 74.4828 204.42 78.431 203.393C79.4229 203.136 80.5279 202.905 81.455 202.491Z" fill="#DEFA8E"/>
<path d="M117.979 168.354C118.746 167.337 118.661 165.214 119.091 163.935C119.157 164.416 119.601 168.216 119.73 168.406L119.911 168.448C120.138 170.654 120.369 173.722 120.892 175.787C121.148 177.547 121.786 179.281 122.157 181.002L121.774 180.548C121.631 180.857 121.552 181.079 121.322 181.339C121.236 180.795 121.3 180.41 120.804 180.132C120.692 182.437 119.93 187.544 118.659 189.443L118.613 189.341C118.469 188.788 118.225 188.284 117.684 188.014C117.033 187.985 117.225 188.002 116.562 188.354C116.587 187.965 116.766 187.648 116.926 187.283L116.837 187.195C116.788 186.35 118.563 184.838 118.067 183.959C117.51 183.696 115.261 183.307 114.944 183.792C114.106 185.073 113.154 186.111 112.225 187.294L112.061 187.288C113.79 184.973 117.038 179.892 117.46 177.143C116.878 176.533 116.287 175.933 115.685 175.342C115.276 176.138 114.849 176.928 114.404 177.706C114.085 178.265 113.859 178.812 113.303 178.966C114.467 177.126 115.735 174.846 116.495 172.844C117.038 171.417 117.454 169.814 117.979 168.354Z" fill="#DEFA8E"/>
<path d="M116.926 187.283C118.077 186.143 119.784 180.774 120.01 179.14C120.155 178.102 120.329 176.347 120.434 175.232L120.597 175.332L120.74 176.066L120.892 175.787C121.148 177.547 121.786 179.281 122.157 181.002L121.774 180.548C121.631 180.857 121.552 181.079 121.322 181.339C121.236 180.795 121.3 180.41 120.804 180.132C120.692 182.437 119.93 187.544 118.659 189.443L118.613 189.341C118.469 188.788 118.225 188.284 117.684 188.014C117.033 187.985 117.225 188.002 116.562 188.354C116.587 187.965 116.766 187.648 116.926 187.283Z" fill="#DEFA8E"/>
<path d="M120.892 175.787C121.148 177.547 121.786 179.281 122.157 181.002L121.774 180.548C121.631 180.857 121.552 181.079 121.322 181.339C121.236 180.795 121.3 180.41 120.804 180.132C120.715 179.032 120.755 177.221 120.74 176.066L120.892 175.787Z" fill="#DEFA8E"/>
<path d="M98.396 208.435C99.8547 207.921 102.269 206.519 103.668 205.715C103.279 206.582 101.682 207.193 100.796 207.567C98.8734 208.376 99.104 210.316 99.1623 211.999C99.9733 212.45 104.415 210.222 105.838 210.352C106.511 210.046 107.075 209.799 107.774 209.533L108.729 209.431C109.286 210.14 109.678 212.028 109.587 212.93L109.035 212.943C108.82 213.184 108.865 213.066 108.818 213.257C115.754 212.541 125.244 209.927 131.738 209.734C132.5 209.761 133.547 209.781 134.329 209.821C134.718 209.841 134.279 210.257 134.845 209.986L134.659 209.863L134.87 209.979C134.417 210.24 134.37 210.268 133.874 210.437L133.835 210.566C127.126 212.378 121.047 215.148 114.04 215.859C112.968 215.967 111.564 216.147 110.509 216.338C110.137 216.387 109.587 216.528 109.308 216.413L109.707 215.91C109.187 216.018 109.054 216.15 108.624 216.441C107.469 216.837 107.043 217.452 106.116 217.836C103.018 219.116 100.212 218.03 97.5424 216.469C97.0929 216.227 96.725 215.952 96.232 215.97L96.08 216.192C91.3404 216.621 77.0471 213.152 72.4052 211.683C73.263 211.4 75.163 211.503 75.273 210.586C74.9893 210.053 74.6395 209.925 74.0899 209.587C74.9153 209.445 78.385 209.439 79.5052 209.368C85.0007 209.019 88.4413 208.366 93.6038 206.561L93.7474 206.676C94.4966 207.405 95.247 208.216 96.1733 208.723C96.9192 208.644 97.6635 208.586 98.396 208.435Z" fill="#DEFA8E"/>
<path d="M107.774 209.533L108.729 209.431C109.286 210.14 109.678 212.028 109.587 212.93L109.035 212.943C108.82 213.184 108.865 213.066 108.818 213.257C104.41 213.915 96.446 214.251 92.0735 213.666C92.7083 213.375 96.9962 212.826 97.9527 212.645C100.975 212.07 103.019 211.553 105.838 210.352C106.511 210.046 107.075 209.799 107.774 209.533Z" fill="#DEFA8E"/>
<path d="M98.396 208.435C99.8547 207.921 102.269 206.519 103.668 205.715C103.279 206.582 101.682 207.193 100.796 207.567C98.8734 208.376 99.104 210.316 99.1623 211.999C99.9733 212.45 104.415 210.222 105.838 210.352C103.019 211.553 100.975 212.07 97.9527 212.645C96.9962 212.826 92.7083 213.375 92.0735 213.666C90.6758 213.711 87.4906 213.3 86.0317 213.142C88.5208 212.347 96.8194 210.036 98.396 208.435Z" fill="#DEFA8E"/>
<path d="M97.5424 216.469C98.8197 216.281 107.456 216.227 108.624 216.441C107.469 216.837 107.043 217.452 106.116 217.836C103.018 219.116 100.212 218.03 97.5424 216.469Z" fill="#DEFA8E"/>
<path d="M121.322 181.339C121.552 181.079 121.631 180.857 121.774 180.548L122.157 181.002C122.803 182.494 123.388 184.148 124.019 185.635C129.43 198.418 141.857 203.622 155.072 206.069C156.203 206.278 164.228 207.572 164.9 207.912C168.914 208.557 181.607 211.645 185.034 213.593C185.664 213.64 187.641 214.577 188.235 214.978C182.847 213.197 174.648 212.655 168.923 212.276C165.636 211.402 164.776 213.262 160.876 210.736C161.669 210.75 162.099 210.732 162.887 210.653C159.546 210.331 156.119 210.496 152.848 210.295C152.319 210.003 149.25 209.636 148.438 209.494C139.434 207.918 130.789 204.133 125.709 196.477C122.482 191.609 121.675 187.025 121.322 181.339Z" fill="#DEFA8E"/>
<path d="M164.9 207.912C168.914 208.557 181.607 211.645 185.034 213.593C183.566 213.44 180.848 212.104 179.344 211.641C178.752 211.458 177.803 211.516 177.166 211.482C177.129 211.48 176.733 210.961 176.728 210.959C174.813 210.328 172.149 209.789 170.261 209.243C168.949 208.862 165.763 208.547 164.9 207.912Z" fill="#DEFA8E"/>
<path d="M107.774 209.533C116.504 204.397 119.668 198.466 120.978 188.888C121.414 191.519 121.802 194.2 122.764 196.699C125.077 202.71 129.648 206.165 135.817 208.227C136.38 208.415 138.644 209.21 139.052 209.481L139.222 209.507C139.439 209.553 139.64 209.598 139.856 209.653C139.653 209.804 139.719 209.81 139.508 209.807C137.992 209.788 135.136 210.504 133.835 210.566L133.874 210.437C134.37 210.268 134.417 210.24 134.87 209.979L134.659 209.863L134.845 209.986C134.279 210.257 134.718 209.841 134.329 209.821C133.547 209.781 132.5 209.761 131.738 209.734C125.244 209.927 115.754 212.541 108.818 213.257C108.865 213.066 108.82 213.184 109.035 212.943L109.587 212.93C109.678 212.028 109.286 210.14 108.729 209.431L107.774 209.533Z" fill="#DEFA8E"/>
<path d="M139.052 209.481L139.222 209.507C139.439 209.553 139.64 209.598 139.856 209.653C139.653 209.804 139.719 209.81 139.508 209.807C137.992 209.788 135.136 210.504 133.835 210.566L133.874 210.437C134.37 210.268 134.417 210.24 134.87 209.979L134.659 209.863L134.845 209.986C134.279 210.257 134.718 209.841 134.329 209.821C133.547 209.781 132.5 209.761 131.738 209.734C132.916 209.5 137.574 209.5 139.052 209.481Z" fill="#DEFA8E"/>
<path d="M107.643 103.688C108.311 101.711 109.19 100.773 109.924 99.1381C110.861 97.0488 109.637 95.757 112.614 94.1661C115.043 92.8691 120.17 93.4067 118.667 97.014C117.558 99.6739 114.154 100.379 111.314 100.2C109.801 101.156 108.725 102.493 108.089 104.125L107.643 103.688Z" fill="#DEFA8E"/>
<path d="M107.643 103.688L108.089 104.125L107.255 106.073L107.643 103.688Z" fill="#DEFA8E"/>
<path d="M75.029 78.8627C77.1108 78.3228 79.2519 79.5158 79.7979 81.52C80.3439 83.5241 79.0857 85.5718 76.9956 86.081C74.9278 86.5849 72.8242 85.392 72.284 83.4094C71.7439 81.4267 72.9694 79.3967 75.029 78.8627Z" fill="#DEFA8E"/>
<path d="M134.993 21.2184C132.752 19.9188 130.932 18.2945 130.875 15.5344C130.841 13.9238 131.58 12.2274 132.783 11.0969C134.136 9.84368 135.952 9.15967 137.829 9.19648C142.627 9.29467 144.262 12.9205 144.019 16.9812C148.188 18.846 152.215 21.6795 155.624 24.6439L154.546 26.1812C150.441 22.7685 148.113 21.0504 143.244 18.6398L142.868 19.0351C140.602 21.3952 139.417 21.5181 136.211 21.6385C135.146 24.2048 133.359 27.4557 132.018 29.9273C132.54 31.2024 132.628 31.7039 132.726 33.0107C134.822 33.1831 137.157 33.0827 139.279 33.0265L139.513 33.1928C143.184 33.1417 148.562 32.8262 152.364 32.847C152.458 32.91 152.551 32.973 152.644 33.036C152.611 33.2501 152.655 33.3188 152.461 33.4618C151.437 34.2133 139.318 33.7335 137.999 34.5385C136.046 34.6197 134.149 34.6947 132.2 34.8764C131.597 35.418 130.936 36.1284 130.175 36.3731C129.313 36.4243 128.158 36.5452 127.341 36.5681C126.899 36.4089 126.539 36.295 126.128 36.0693C123.729 38.7926 121.037 41.701 119.058 44.6829C117.2 48.1327 116.361 50.2049 116.122 54.1476C117.814 54.615 118.406 55.0085 119.55 56.2401C120.875 55.7372 123.767 54.4696 124.916 54.1552L125.437 55.5432C123.885 56.2069 121.414 57.1869 120.041 58.0335C119.722 60.4264 119.26 61.4101 116.834 62.4446C116.969 63.6925 116.973 64.5286 116.964 65.792C117.042 68.6072 116.545 70.5971 116.518 73.0717C117.345 72.2149 121.565 66.7412 121.851 66.5812C123.352 64.3681 126.219 61.2914 128.009 59.1327C128.636 59.4974 129.214 59.827 129.816 60.232C129.335 60.9917 124.169 68.2087 123.833 68.4382C123.689 68.6606 123.128 69.497 123.056 69.6847C122.562 70.4172 122.096 71.0883 121.67 71.8616C122.675 71.5761 123.268 71.435 124.315 71.2995C125.257 71.1775 126.326 71.3276 127.096 70.9068C129.941 70.2508 131.504 70.7812 132.302 73.5801C131.723 75.5133 130.354 77.2263 127.901 76.5615C125.769 75.9836 125.675 74.124 125.53 72.3087C124.795 72.0147 123.24 72.343 122.502 72.6477C119.184 74.0166 117.609 77.8958 115.659 80.5932C115.33 81.0468 114.756 82.087 114.446 82.4379C113.34 82.9865 111.719 86.8924 110.44 88.3131C110.355 88.1702 110.27 88.0272 110.185 87.8844C108.397 87.1415 108.08 87.2446 106.866 85.7281C108.47 82.9934 108.555 79.178 107.232 76.374C105.603 72.9235 104.582 71.2318 104.234 67.3586C104.139 67.322 104.045 67.284 103.95 67.2448C102.185 66.5032 101.434 65.965 100.74 64.2751C99.2122 64.0492 97.3953 63.984 95.8105 63.8146C95.8775 63.5012 95.7693 63.1354 95.843 62.6745C96.1327 62.3987 96.6025 62.4039 97.0385 62.3438C98.1676 62.3634 99.4548 62.5053 100.591 62.6045C101.054 61.2887 101.621 60.6772 102.598 59.7275C101.678 57.2044 101.207 55.2718 100.976 52.575C98.494 51.5094 97.293 49.9308 97.8516 47.2209C96.3042 45.8192 93.9187 44.4248 92.085 43.3376C91.4278 42.9479 90.1945 42.3624 89.669 41.921C88.5284 40.7688 85.1692 40.0612 83.7651 39.3545C82.7089 38.8231 81.7893 38.8762 81.3641 38.5443C81.6023 38.264 81.4533 38.3696 81.8697 38.2956C82.8619 38.7262 82.9233 38.8189 83.7275 38.1145C85.1686 38.3415 88.9874 40.183 90.3511 40.764L90.6324 40.679C91.9748 41.1314 97.4957 44.768 98.6076 45.6787C99.2023 45.1141 99.3747 44.9728 100.073 44.5347C98.8641 39.0829 98.0546 33.3292 96.9947 27.839C96.8662 27.1739 96.5856 25.9036 97.1645 25.4444C97.6997 25.483 97.8677 25.4548 98.3219 25.7387C98.6498 26.657 99.0667 30.2653 99.2932 31.4559C100.086 35.6186 100.748 39.9267 101.65 44.0646C103.614 44.4248 104.295 44.6494 105.85 45.9456C107.226 45.1074 109.321 44.191 110.803 43.4042C114.871 41.2435 121.268 37.7588 124.344 34.3276C124.258 33.0016 124.273 32.208 124.343 30.8743C123.271 29.8235 121.435 28.7498 120.222 27.8109C116.991 25.3084 112.886 22.7611 109.808 20.1946L110.474 18.6559C111.509 19.2975 112.968 20.5403 114.049 21.287C117.728 23.8296 121.724 27.1709 125.473 29.5143C125.586 29.4442 125.7 29.3755 125.814 29.3083C127.545 28.3009 128.657 28.3606 130.501 28.8058C131.862 27.6346 133.691 22.9213 134.993 21.2184ZM106.324 47.6129C106.376 50.5135 105.487 51.5473 102.691 52.7251C102.833 55.1549 103.151 56.8828 104.067 59.1521C105.56 59.2198 106.803 59.3213 107.885 60.5124C108.612 61.3241 108.951 62.3908 108.82 63.4535C108.603 65.2622 107.251 66.2478 105.809 67.1875C106.179 71.1057 107.559 72.8545 109.131 76.367C109.646 77.5169 110.063 79.2616 110.33 80.4884C114.46 75.1345 114.954 71.9379 115.559 65.2916C115.467 64.8128 115.457 63.0683 115.442 62.4855C114.005 62.1074 112.848 61.7666 111.984 60.4329C111.385 59.5036 111.222 58.3747 111.535 57.3239C111.984 55.7654 112.999 55.0787 114.329 54.3223C114.561 51.3293 115.934 46.5007 117.653 43.9722C118.326 42.6825 119.13 41.491 119.959 40.2896C116.001 42.2743 112.171 44.4879 108.241 46.5257C107.587 46.8649 106.941 47.2131 106.324 47.6129ZM135.398 17.4497C134.743 17.7078 134.573 17.7358 134.06 18.1748C133.877 18.636 133.877 18.4105 134.064 18.8739C135.33 20.0034 137.49 20.1235 139.102 19.763C140.045 19.252 140.159 19.1782 140.979 18.4706C139.115 17.0627 137.75 17.3087 135.398 17.4497ZM134.735 14.3357C134.765 15.1173 135.173 15.841 135.839 16.2912C136.505 16.7414 137.351 16.8665 138.128 16.6292C139.502 16.2085 140.26 14.7927 139.814 13.4736C139.368 12.1543 137.891 11.4355 136.519 11.8711C135.421 12.2203 134.694 13.2245 134.735 14.3357Z" fill="#DEFA8E"/>
<path d="M114.329 54.3223C114.561 51.3293 115.934 46.5007 117.653 43.9722C117.624 44.4813 115.584 49.2236 115.243 50.1364C115.371 50.6405 115.416 50.8581 115.629 51.3274L115.865 51.4294C116.482 50.76 117.365 46.2618 118.788 44.6435L119.058 44.6829C117.2 48.1327 116.361 50.2049 116.122 54.1476C117.814 54.615 118.406 55.0085 119.55 56.2401C120.875 55.7372 123.767 54.4696 124.916 54.1552L125.437 55.5432C123.885 56.2069 121.414 57.1869 120.041 58.0335C119.722 60.4264 119.26 61.4101 116.834 62.4446C116.969 63.6925 116.973 64.5286 116.964 65.792C116.264 64.728 116.918 63.1291 116.352 62.5788C115.295 63.8545 115.996 64.4233 115.559 65.2916C115.467 64.8128 115.457 63.0683 115.442 62.4855C114.005 62.1074 112.848 61.7666 111.984 60.4329C111.385 59.5036 111.222 58.3747 111.535 57.3239C111.984 55.7654 112.999 55.0787 114.329 54.3223Z" fill="#DEFA8E"/>
<path d="M128.009 59.1327C128.636 59.4974 129.214 59.827 129.816 60.232C129.335 60.9917 124.169 68.2087 123.833 68.4382C123.676 67.3363 126.618 65.0212 126.535 63.7399C125.065 61.3253 123.352 65.9028 121.851 66.5812C123.352 64.3681 126.219 61.2914 128.009 59.1327Z" fill="#DEFA8E"/>
<path d="M99.8489 0C100.621 0.108732 101.428 0.235307 102.2 0.317208C104.135 0.746518 105.941 1.59699 107.48 2.80302C113.076 7.19671 113.43 15.8001 108.864 20.8683C101.463 29.083 87.1721 24.4888 86.7994 13.4043C86.5302 5.39883 91.6385 0.274079 99.8489 0ZM90.9853 19.7347C92.8815 22.5278 97.1051 23.4876 100.388 23.3214C102.561 22.9865 105.538 22.2307 106.928 20.4984C108.349 18.7264 106.251 16.6757 104.73 15.838C102.874 14.8156 100.918 14.4642 98.8174 14.5423C94.7345 14.8614 92.2017 15.5986 90.9853 19.7347ZM99.9416 13.5618C101.511 13.3336 102.832 12.3119 103.398 10.8873C103.964 9.46267 103.689 7.85571 102.677 6.68044C101.665 5.50532 100.074 4.94381 98.5114 5.21059C96.1378 5.61601 94.5443 7.779 94.9356 10.0645C95.327 12.3498 97.5578 13.9083 99.9416 13.5618Z" fill="#DEFA8E"/>
<path d="M74.9544 200.444L78.5186 199.732L78.5163 199.91C77.2375 200.389 74.6316 200.582 73.7114 201.106C73.649 201.776 75.0294 203.606 75.6621 203.897C76.5917 203.554 80.5215 202.521 81.455 202.491C80.5279 202.905 79.4229 203.136 78.431 203.393C74.4828 204.42 70.5274 205.402 66.646 206.649C65.8926 206.892 65.0699 207.01 64.3368 207.245C64.9195 207.364 65.1242 207.31 65.7163 207.211C66.1883 207.633 66.9024 208.438 67.1643 208.997C66.6926 209.095 66.3756 209.16 65.8974 209.212C68.2316 209.429 70.6292 209.351 72.8367 209.536C72.1205 209.953 71.6115 210.219 70.9871 210.77L72.1053 211.591L72.4052 211.683C77.0471 213.152 91.3404 216.621 96.08 216.192C94.1121 216.68 89.1757 216.46 86.9292 216.371C80.7608 216.128 74.1772 216.244 68.0902 215.446C61.5479 214.588 55.387 213.08 48.7615 212.476C41.6122 211.825 35.9983 212.188 28.9312 213.036C26.0953 213.724 23.1901 213.981 20.2565 214.78C22.2879 213.559 28.0347 211.153 30.4239 210.261C39.2552 206.964 48.8586 204.874 58.1725 203.24C63.7432 202.263 69.4294 201.633 74.9544 200.444Z" fill="#DEFA8E"/>
<path d="M74.9544 200.444L78.5186 199.732L78.5163 199.91C77.2375 200.389 74.6316 200.582 73.7114 201.106C73.649 201.776 75.0294 203.606 75.6621 203.897C76.5917 203.554 80.5215 202.521 81.455 202.491C80.5279 202.905 79.4229 203.136 78.431 203.393C74.4828 204.42 70.5274 205.402 66.646 206.649C65.8926 206.892 65.0699 207.01 64.3368 207.245C60.7582 207.859 56.2184 208.409 52.597 208.508C49.4668 208.415 30.0402 211.386 28.9312 213.036C26.0953 213.724 23.1901 213.981 20.2565 214.78C22.2879 213.559 28.0347 211.153 30.4239 210.261C39.2552 206.964 48.8586 204.874 58.1725 203.24C63.7432 202.263 69.4294 201.633 74.9544 200.444Z" fill="#DEFA8E"/>
<path d="M64.3368 207.245C64.9195 207.364 65.1242 207.31 65.7163 207.211C66.1883 207.633 66.9024 208.438 67.1643 208.997C66.6926 209.095 66.3756 209.16 65.8974 209.212L63.5458 209.17C62.227 209.275 61.0075 209.08 59.808 209.25L59.8274 209.45C59.318 209.47 57.8516 209.352 57.266 209.318C56.4935 209.328 54.4304 209.302 53.8366 208.963C53.2379 208.834 53.081 208.838 52.597 208.508C56.2184 208.409 60.7582 207.859 64.3368 207.245Z" fill="#DEFA8E"/>
<path d="M75.0068 93.8784C75.8344 94.0597 76.5976 93.9523 77.4403 93.9279C82.1316 93.7918 86.2714 98.4085 85.4596 102.927C85.0614 105.185 83.7299 107.193 81.7675 108.494C77.3234 111.462 72.0515 109.337 69.6571 104.987C65.1858 104.213 61.1845 103.446 56.9711 101.771C56.4575 101.567 55.0565 100.961 54.631 100.864C53.9671 99.9982 54.2264 99.4532 54.5915 98.5458C57.3743 100.38 65.6915 101.912 69.1598 102.661C69.2643 99.1299 69.9598 96.8231 73.3664 94.9183C74.1129 94.5268 74.354 94.3937 75.0068 93.8784ZM78.6431 108.297C80.6328 107.801 81.4909 107.486 82.7297 105.808C81.1347 102.866 79.173 102.905 76.044 102.993C69.3907 104.752 73.0551 108.769 78.2419 108.332L78.4928 108.312C78.543 108.307 78.593 108.302 78.6431 108.297ZM78.2887 102.499C79.6426 101.658 79.7828 101.176 80.1804 99.6715C79.5632 97.6398 78.8695 96.9401 76.6058 97.0932C75.7249 97.5595 75.1581 97.9882 74.8654 98.9773C74.6419 99.7313 74.7504 100.54 75.1656 101.215C75.8936 102.396 76.959 102.653 78.2887 102.499Z" fill="#DEFA8E"/>
<path d="M139.222 209.507C143.693 209.643 148.473 210.47 152.848 210.295C156.119 210.496 159.546 210.331 162.887 210.653C162.099 210.732 161.669 210.75 160.876 210.736C164.776 213.262 165.636 211.402 168.923 212.276C164.178 212.323 159.472 212.46 154.754 213.087C150.526 213.651 146.371 214.585 142.137 215.202C133.346 216.484 124.273 216.295 115.393 216.571C113.727 216.623 112.151 216.556 110.509 216.338C111.564 216.147 112.968 215.967 114.04 215.859C121.047 215.148 127.126 212.378 133.835 210.566C135.136 210.504 137.992 209.788 139.508 209.807C139.719 209.81 139.653 209.804 139.856 209.653C139.64 209.598 139.439 209.553 139.222 209.507Z" fill="#DEFA8E"/>
<path d="M61.5748 13.0604C62.1683 13.0469 62.9678 13.3174 63.5962 13.3571C66.6336 13.5489 69.4204 15.4624 70.2948 18.4018C70.8055 20.1355 70.5756 21.9932 69.6561 23.5635C68.6896 25.182 67.2994 26.1894 65.4413 26.6816C64.2674 26.9048 63.5238 26.929 62.3206 26.7419C58.5571 26.1571 55.7536 22.3312 56.5617 18.7235C57.1304 16.1854 59.3555 14.3964 61.5748 13.0604ZM64.565 21.0542C65.9394 20.6076 66.6788 19.1773 66.2189 17.8555C65.7589 16.5335 64.2728 15.8179 62.8952 16.2551C61.5108 16.6945 60.7613 18.1311 61.2236 19.4596C61.6858 20.7882 63.1837 21.5029 64.565 21.0542ZM64.9874 24.9582C65.8778 24.6302 66.5747 24.4188 67.1578 23.668C67.6106 21.6258 63.5788 21.7101 62.2545 21.802C61.2813 22.1359 60.5647 22.2473 60.0138 23.0825C59.7631 25.0266 63.3155 25.2268 64.7083 25.002L64.9874 24.9582Z" fill="#DEFA8E"/>
<path d="M185.528 43.2025C187.748 42.8064 190.019 43.5862 191.474 45.2447C192.929 46.9032 193.346 49.1848 192.563 51.2196C191.781 53.2544 189.921 54.7287 187.694 55.0805C184.299 55.6166 181.086 53.4266 180.494 50.1704C179.9 46.9143 182.146 43.8064 185.528 43.2025ZM187.651 50.3218C188.957 49.8043 189.586 48.375 189.065 47.1146C188.543 45.8544 187.064 45.2311 185.745 45.7163C184.876 46.0356 184.255 46.779 184.117 47.6622C183.978 48.5453 184.345 49.4316 185.076 49.9823C185.809 50.5328 186.793 50.6625 187.651 50.3218ZM188.204 53.185C188.842 52.8794 189.321 52.7212 189.77 52.1988L189.861 51.8126C189.044 50.5814 186.341 50.8028 184.986 50.8882C184.414 51.154 184.003 51.2788 183.614 51.7557C183.564 52.0053 183.483 52.2697 183.734 52.4598C185.015 53.4308 186.751 53.5804 188.204 53.185Z" fill="#DEFA8E"/>
<path d="M5.70613 100.569C5.90924 98.8713 6.395 94.2615 7.11166 92.8724C7.54697 92.713 8.03085 92.8944 8.51515 93.0009C8.26422 95.2866 7.69685 98.0483 7.38656 100.524C9.13512 101.001 9.43533 101.598 10.4205 103.031C11.9672 103.408 13.171 103.706 14.6841 104.213C16.4414 101.472 18.9899 101.535 21.3052 103.616C22.8482 103.343 24.2781 103.14 25.8582 103.162C26.2962 103.168 28.2855 103.474 28.4373 103.381C28.686 104.055 28.7619 104.245 28.8758 104.94C25.9093 104.6 24.4229 104.523 21.5842 105.359C21.2638 106.56 20.9793 107.483 19.779 108.2C19.0255 108.643 18.1178 108.776 17.2612 108.568C15.6675 108.19 15.0016 107.128 14.4725 105.761C13.0768 105.399 11.679 105.044 10.2792 104.696C9.36748 106.25 9.04915 106.449 7.32573 107.149C7.23843 109.642 7.70804 110.543 9.10405 112.584C8.66669 112.919 8.5772 113.037 7.9689 112.968C5.81354 111.85 5.65788 109.252 5.81098 107.169C5.57862 107.047 5.35066 106.919 5.12722 106.783C3.73735 105.922 3.50719 105.194 3.16356 103.756C3.56276 102.088 4.10496 101.328 5.70613 100.569Z" fill="#DEFA8E"/>
<path d="M70.7032 22.052C74.2553 23.15 79.6154 25.0511 83.0452 26.4218C83.8444 25.5088 84.35 24.9741 85.5182 24.5067C86.8391 23.9698 88.3279 23.9594 89.6567 24.4779C90.8454 24.9512 91.7827 25.8686 92.2534 27.019C92.9016 28.5686 92.6691 29.8171 92.0535 31.2837C91.0156 32.7252 89.5766 33.6244 87.7103 33.6775C86.3143 33.716 84.964 33.1977 83.9799 32.2458C82.6928 30.9954 82.484 29.686 82.483 28.0432C80.7311 27.1625 70.873 23.9621 70.4447 23.4101C70.3989 22.8207 70.5098 22.6322 70.7032 22.052Z" fill="#DEFA8E"/>
<path d="M72.8757 36.5233C73.3517 35.3312 73.7399 34.3876 75.0697 33.7911C75.9561 33.3941 76.9767 33.3799 77.8747 33.7524C79.0143 34.2247 79.6362 35.0859 80.0492 36.1655C80.1361 36.3955 80.2152 36.6282 80.2861 36.8632C83.3744 37.7166 87.9581 39.0493 90.6324 40.679L90.3511 40.764C88.9874 40.183 85.1686 38.3415 83.7275 38.1145C82.9233 38.8189 82.8619 38.7262 81.8697 38.2956C81.4533 38.3696 81.6023 38.264 81.3641 38.5443C81.7893 38.8762 82.7089 38.8231 83.7651 39.3545C85.1692 40.0612 88.5284 40.7688 89.669 41.921C85.6081 40.3997 84.4868 39.5618 79.9849 38.6695C78.9441 39.5798 78.4788 40.0011 77.2225 40.6646C77.2471 44.9333 77.6238 44.8334 78.5884 48.4569C77.8523 48.4343 77.6628 48.4616 76.9351 48.5914L76.7735 48.1938C75.6449 45.4339 75.7657 43.4912 75.681 40.5245C74.3824 39.837 73.833 39.3125 73.1478 38.072C69.9974 37.9779 66.5917 38.4773 63.5348 38.3368C60.2522 38.5418 56.9593 38.7742 53.6713 38.8471C53.4076 38.8183 53.3304 38.7968 53.0731 38.7379C52.8243 38.2032 52.9597 37.9679 53.0302 37.3227C56.2378 37.3703 60.5487 37.0392 63.8615 36.9299C66.0339 36.6723 70.4922 36.6488 72.8757 36.5233Z" fill="#DEFA8E"/>
<path d="M53.0302 37.3227C56.2378 37.3703 60.5487 37.0392 63.8615 36.9299C61.4568 37.7665 58.6608 36.9481 56.1618 37.5887C55.3685 37.7921 54.3373 37.1563 53.881 38.0016C54.5077 39.3471 61.4967 37.677 63.5348 38.3368C60.2522 38.5418 56.9593 38.7742 53.6713 38.8471C53.4076 38.8183 53.3304 38.7968 53.0731 38.7379C52.8243 38.2032 52.9597 37.9679 53.0302 37.3227Z" fill="#DEFA8E"/>
<path d="M109.794 29.8307C111.578 29.5236 113.397 30.1613 114.556 31.5006C115.716 32.84 116.037 34.6745 115.397 36.3044C114.758 37.9344 113.255 39.1084 111.465 39.3788C108.736 39.7907 106.17 38.0156 105.712 35.3988C105.255 32.7819 107.075 30.2987 109.794 29.8307ZM110.298 35.7783C109.447 36.0374 108.64 36.148 108.207 36.8921C108.336 37.8977 109.732 38.0553 110.627 38.2054C111.49 38.1437 112.603 37.8737 113.214 37.2595C113.397 36.2619 112.183 36.3601 111.926 35.5615C112.946 33.3859 114.319 31.9499 110.348 31.333C109.032 31.8671 107.904 32.6823 108.514 34.2063C108.831 34.9982 109.59 35.3522 110.298 35.7783Z" fill="#DEFA8E"/>
<path d="M51.6036 43.8135C53.3047 44.4893 56.147 46.1488 57.9959 47.0139C59.1259 46.1209 60.1125 45.7741 61.5802 45.8865C63.6794 46.0472 65.0792 47.7923 65.0631 49.7375C65.0289 53.8477 58.4191 54.4761 57.276 50.6154C57.0523 49.8599 57.0568 49.1384 57.0703 48.3725C55.1717 47.1461 52.52 46.1925 50.8934 45.0322C51.0342 44.4007 51.1423 44.2368 51.6036 43.8135Z" fill="#DEFA8E"/>
<path d="M135.406 115.647C136.064 116.136 137.069 116.942 137.812 117.262C138.641 117.602 139.514 117.236 140.388 117.361C143.272 117.763 145.265 120.338 145.69 122.962C145.891 124.197 145.089 125.313 143.759 125.247C139.239 125.024 136.461 122.151 137.392 117.892C136.553 117.091 135.677 116.472 134.674 115.867L135.406 115.647Z" fill="#DEFA8E"/>
<path d="M76.535 143.419C76.3332 144.079 76.3107 144.53 76.1792 145.192C75.8925 146.693 74.872 147.389 73.6558 148.232C72.1061 149.306 67.5709 150.683 66.4348 148.625C65.3378 146.637 68.3522 144.062 70.0999 143.309C72.1142 142.441 73.8804 142.359 75.9774 143.09C76.2826 143.225 76.373 143.205 76.535 143.419Z" fill="#DEFA8E"/>
<path d="M159.092 98.0027C159.336 96.7736 159.537 95.7603 160.666 94.9681C163.475 92.9961 166.88 95.6314 165.944 98.6173C164.921 101.883 161.572 101.099 159.456 99.6175C154.235 101.406 147.745 105.029 142.915 107.802L142.665 107.543C147.4 104.805 151.927 101.775 156.792 99.2451C157.513 98.8701 158.418 98.4369 159.092 98.0027Z" fill="#DEFA8E"/>
<path d="M131.632 117.751C132.922 118.372 133.402 118.829 133.93 120.214C134.528 121.783 134.263 123.977 133.511 125.471C132.742 126.999 131.629 127.32 130.299 128.248L130.154 128.095C128.69 126.645 128.003 125.51 128.04 123.371C128.085 120.836 129.107 118.75 131.632 117.751Z" fill="#DEFA8E"/>
<path d="M83.7885 93.5535C81.0097 91.6091 81.3654 89.2996 83.1035 86.7091C83.8255 85.6332 85.5837 84.3407 87.0087 85.2348C88.7534 86.5377 87.8908 90.878 86.6736 92.2824C85.9175 93.1548 85.366 93.5342 84.3 93.6569L83.7885 93.5535Z" fill="#DEFA8E"/>
<path d="M205.903 110.346C206.513 110.667 206.428 110.743 207.01 110.71L207.325 110.521C207.35 110.775 207.285 111.028 207.502 111.157C209.884 112.579 211.507 114.265 209.382 116.747C206.817 119.743 204.871 116.528 202.897 116.799C202.599 116.491 202.315 116.122 202.042 115.789C202.333 115.662 202.622 115.533 202.91 115.4C203.444 114.482 203.043 113.735 203.596 112.82C204.437 111.428 205.539 111.989 205.903 110.346Z" fill="#DEFA8E"/>
<path d="M163.179 82.807C164.26 83.2271 164.624 83.2329 165.209 84.1958C162.142 86.5665 153.588 91.7604 149.821 92.5193C150.076 91.6225 150.134 91.3045 149.77 90.4518C150.373 89.9718 151.104 89.6224 151.823 89.3334C156.013 87.6527 159.478 85.287 163.179 82.807Z" fill="#DEFA8E"/>
<path d="M112.265 8.74262C114.676 8.89097 128.999 11.8852 130.252 13.2713C130.353 13.8647 130.161 14.3222 129.999 14.9144C124.2 13.2998 118.846 11.4418 112.721 10.7176C112.532 10.1151 112.224 9.34149 112.265 8.74262Z" fill="#DEFA8E"/>
<path d="M61.7415 112.666C59.8683 112.198 57.9519 111.551 57.3971 109.554C55.6785 103.37 67.0632 107.09 62.4484 112.288L62.8835 113.377L62.6538 113.384C62.4969 113.027 62.4789 112.929 62.2463 112.61C62.2707 114.463 63.2763 114.825 63.2367 116.116C62.661 115.214 62.1365 113.701 61.7415 112.666Z" fill="#DEFA8E"/>
<path d="M86.1018 10.7395C86.1466 11.0691 86.1502 12.0735 86.1631 12.4557C81.726 14.0574 77.3296 15.6773 73.1436 17.8414C72.7121 18.0644 71.7759 18.604 71.3266 18.592C71.1492 18.0462 70.9126 17.4654 70.7066 16.9242C72.4237 16.2235 74.3887 15.1283 76.0891 14.2951C79.4909 12.6286 82.4061 11.5764 86.1018 10.7395Z" fill="#DEFA8E"/>
<path d="M102.893 82.9044C97.796 82.7928 98.2126 76.6276 100.59 75.745C101.026 75.5792 101.514 75.5921 101.941 75.7808C102.838 76.1723 103.569 77.3106 103.898 78.1612C104.543 79.8295 104.243 81.1609 103.554 82.7204L102.893 82.9044Z" fill="#DEFA8E"/>
<path d="M116.517 85.1019C117.026 84.077 117.617 83.2006 118.805 82.8012C119.662 82.5151 120.604 82.5878 121.402 83.0016C122.138 83.3757 122.727 84.0515 122.942 84.8277C123.116 85.4428 123.028 86.0992 122.698 86.652C121.984 87.8185 120.69 88.1446 119.434 88.438C117.799 87.9169 117.131 87.4994 116.453 85.88L116.517 85.1019Z" fill="#DEFA8E"/>
<path d="M145.857 43.3756C147.039 42.711 152.866 39.2192 153.648 39.3328C154.006 39.6801 154.021 39.6724 154.271 40.1268C154.09 40.8153 152.111 41.7198 151.346 42.17C149.639 43.0934 146.866 44.7273 145.214 45.4875L144.219 44.3164C144.762 43.9977 145.309 43.6841 145.857 43.3756Z" fill="#DEFA8E"/>
<path d="M67.3055 88.7003C70.2581 91.3738 71.279 92.2736 75.0068 93.8784C74.354 94.3937 74.1129 94.5268 73.3664 94.9183C71.8172 94.3204 66.1201 91.634 66.3394 89.8305C66.8712 89.3846 66.9342 89.2821 67.3055 88.7003Z" fill="#DEFA8E"/>
<path d="M56.5491 23.8483C56.9188 24.1505 57.3519 24.8197 57.6433 25.2267C55.5592 27.187 53.3536 28.9139 51.1395 31.0514C49.6429 29.713 50.1997 29.5125 51.5407 28.2023C53.085 26.6935 54.7033 24.9976 56.5491 23.8483Z" fill="#DEFA8E"/>
<path d="M142.952 43.5534C143.911 42.6899 143.564 43.2796 144.788 42.6978L144.937 42.0957C145.328 42.0568 145.247 41.9473 145.704 41.8982C145.69 42.0052 145.318 42.7145 145.243 42.8637L145.361 43.041C145.689 42.9022 145.521 42.9114 145.86 42.9468L145.857 43.3756C145.309 43.6841 144.762 43.9977 144.219 44.3164L145.214 45.4875C146.866 44.7273 149.639 43.0934 151.346 42.17C152.393 43.3016 151.58 45.1863 149.666 44.7423C149.555 44.3271 149.586 44.3647 149.579 43.9308L149.318 43.8494C148.492 44.2581 149.089 44.864 148.407 44.8513L148.036 44.5708L147.593 44.7523C147.628 45.2502 147.757 45.6167 147.54 45.9588C147.037 45.7771 147.05 45.6625 146.859 45.1466C146.596 45.7851 146.549 46.8931 146.531 47.5938L146.644 47.7535C146.27 47.9078 146.463 47.8529 145.967 47.7552C145.081 45.7188 144.549 45.1264 142.952 43.5534Z" fill="#DEFA8E"/>
<path d="M182.649 95.3816C184.721 95.1239 189.652 94.0699 191.181 94.2167C191.446 94.5551 191.49 95.1116 191.238 95.4687C190.104 95.8263 187.991 96.0674 186.738 96.2933C185.72 96.4769 183.886 96.9113 182.937 97.008C182.791 96.4078 182.729 95.9949 182.649 95.3816Z" fill="#DEFA8E"/>
<path d="M175.624 39.4214C176.005 39.5943 180.209 43.7712 180.89 44.3468C180.658 44.8278 180.441 45.3679 180.232 45.862C178.428 44.4729 176.068 42.5084 174.746 40.7073C174.994 40.2585 175.32 39.8394 175.624 39.4214Z" fill="#DEFA8E"/>
<path d="M206.178 103.529C206.806 103.357 207.037 103.234 207.63 102.952C207.771 104.564 208.084 109.221 207.325 110.521L207.01 110.71C206.428 110.743 206.513 110.667 205.903 110.346C206.289 107.989 206.199 105.907 206.178 103.529Z" fill="#DEFA8E"/>
<path d="M127.341 36.5681C128.158 36.5452 129.313 36.4243 130.175 36.3731L130.242 36.6186C130.54 37.6889 131.994 40.9044 131.913 41.4691C131.578 41.8317 131.787 41.6907 131.198 41.7988C129.622 41.4025 129.534 38.0564 128.221 36.7515C127.847 36.6405 127.73 36.623 127.341 36.5681Z" fill="#DEFA8E"/>
<path d="M110.44 88.3131C111.719 86.8924 113.34 82.9865 114.446 82.4379C114.021 83.2199 113.644 83.8208 113.16 84.571C114.329 84.689 115.391 84.7553 116.517 85.1019L116.453 85.88C115.537 85.3251 113.907 85.3868 112.816 85.4189C111.547 87.0298 110.794 88.3983 109.814 90.1671C109.564 90.6177 108.833 91.9833 108.6 92.2832L108.431 92.1151C108.755 91.396 110.335 88.7315 110.44 88.3131Z" fill="#DEFA8E"/>
<path d="M72.8367 209.536L74.0899 209.587C74.6395 209.925 74.9893 210.053 75.273 210.586C75.163 211.503 73.263 211.4 72.4052 211.683L72.1053 211.591L70.9871 210.77C71.6115 210.219 72.1205 209.953 72.8367 209.536Z" fill="#DEFA8E"/>
<path d="M83.7885 93.5535L84.3 93.6569C85.2831 95.333 85.9718 96.6198 87.4722 97.9556C89.0864 99.3929 94.5391 100.785 95.6655 102.732L95.525 102.845C95.2812 102.795 94.1455 101.756 93.7303 101.516C92.1634 100.606 88.8271 98.9725 87.1398 98.6028L87.0969 98.3696C87.1065 98.4128 84.1871 94.2302 83.7885 93.5535Z" fill="#DEFA8E"/>
<path d="M74.3549 198.987C75.4665 198.257 77.4454 197.327 78.7075 196.575C81.7804 194.748 83.7035 193.179 86.2099 190.783C86.0276 191.948 82.8445 194.201 81.7056 195.015C80.4036 195.942 79.0386 196.785 77.6199 197.536L77.6446 197.644C78.6091 197.417 80.0352 196.581 80.6231 196.91C79.5335 197.334 78.3412 197.699 77.2217 198.063C76.2859 198.319 75.2814 198.677 74.3549 198.987Z" fill="#DEFA8E"/>
<path d="M103.554 82.7204C103.955 86.6186 103.019 88.7517 101.619 92.4522C101.329 92.1068 101.31 92.1289 101.201 91.7063C101.754 89.6152 104.401 85.0082 102.893 82.9044L103.554 82.7204Z" fill="#DEFA8E"/>
<path d="M118.833 163.273C118.798 162.811 118.708 162.181 118.836 161.758C119.39 162.427 119.866 167.372 119.911 168.448L119.73 168.406C119.601 168.216 119.157 164.416 119.091 163.935C118.661 165.214 118.746 167.337 117.979 168.354C118.276 166.663 118.561 164.969 118.833 163.273Z" fill="#DEFA8E"/>
<path d="M75.9774 143.09C77.4096 142.74 78.19 142.392 79.7338 142.111C79.3573 142.256 76.6728 143.389 76.535 143.419C76.373 143.205 76.2826 143.225 75.9774 143.09Z" fill="#DEFA8E"/>
<path d="M130.154 128.095L130.299 128.248C129.81 128.994 129.556 129.267 128.964 129.907C128.569 130.282 128.108 130.676 127.791 131.101L127.702 131.032C127.899 130.473 129.641 128.651 130.154 128.095Z" fill="#DEFA8E"/>
<path d="M142.665 107.543L142.915 107.802C142.453 108.044 141.596 108.418 141.326 108.797L141.314 108.893C140.94 109.032 141.146 109.006 140.65 108.796C141.308 108.281 141.937 107.951 142.665 107.543Z" fill="#DEFA8E"/>
<path d="M127.791 131.101C128.108 130.676 128.569 130.282 128.964 129.907L129.443 130.184L129.429 130.35C128.967 130.552 128.892 130.527 128.551 130.864C128.218 130.986 128.133 131.037 127.791 131.101Z" fill="#DEFA8E"/>
<path d="M83.1227 125.59L84.8882 127.227L83.225 126.443C83.1487 126.349 83.0336 126.149 82.9653 126.04L83.1227 125.59Z" fill="#DEFA8E"/>
<path d="M201.901 116.279L202.042 115.789C202.315 116.122 202.599 116.491 202.897 116.799L202.359 117.23L201.901 116.279Z" fill="#DEFA8E"/>
<path d="M86.2732 195.831L87.1506 194.426C88.0864 194.314 95.0955 190.633 98.4099 188.807C99.9307 188.132 102.943 185.81 104.259 184.733C107.33 181.923 107.915 182.064 108.061 181.783C108.178 181.558 108.646 181.783 108.792 182.064L109.377 181.783L109.669 182.064L109.084 182.766L109.669 182.906L109.816 182.906L109.962 183.468L109.669 183.609C107.681 186.868 102.699 190.211 100.457 191.476C96.7138 193.103 89.4991 196.428 88.5579 196.901C88.5329 196.925 88.5027 196.943 88.4666 196.955C88.4365 196.964 88.4696 196.945 88.5579 196.901C88.836 196.633 88.4666 195.644 88.4666 195.128C88.4666 194.679 87.0531 195.409 86.2732 195.831Z" fill="#DEFA8E"/>
<path d="M96.0703 208.755C95.4854 208.53 94.1694 207.257 93.5845 206.648C93.7015 206.648 98.215 204.4 100.457 203.276L105.575 199.764C105.926 199.652 108.451 197.47 109.669 196.393C110.488 196.168 114.592 190.961 116.542 188.385C116.776 187.936 117.517 187.917 117.858 187.964C118.209 188.076 118.589 188.947 118.735 189.369C118.735 190.38 116.883 193.068 115.957 194.285C115.84 195.184 112.106 198.968 110.254 200.748C109.903 201.309 105.721 204.353 103.674 205.805C102.855 206.929 99.8235 208.053 98.4099 208.474C97.8738 208.661 96.6552 208.98 96.0703 208.755Z" fill="#DEFA8E"/>
</svg>
